<mxfile modified="2023-11-17T16:35:51.853Z" host="app.diagrams.net" agent="Mozilla/5.0 (Windows NT 10.0; Win64; x64) AppleWebKit/537.36 (KHTML, like Gecko) Chrome/119.0.0.0 Safari/537.36" etag="5eMOkx9uVeGhwOS1kgQ2" version="22.1.3" type="github">
  <diagram id="l8hXMBHkgcEJcSW0mbfh" name="Page-1">
    <mxGraphModel dx="1500" dy="946" grid="1" gridSize="10" guides="1" tooltips="1" connect="1" arrows="1" fold="1" page="1" pageScale="1" pageWidth="1600" pageHeight="900" math="0" shadow="0">
      <root>
        <mxCell id="0" />
        <mxCell id="1" parent="0" />
        <mxCell id="Ry9hIVVeoLZASk-tj-2A-9" value="" style="group" vertex="1" connectable="0" parent="1">
          <mxGeometry x="540" y="100" width="310" height="115" as="geometry" />
        </mxCell>
        <mxCell id="Ry9hIVVeoLZASk-tj-2A-8" value="" style="rounded=1;whiteSpace=wrap;html=1;" vertex="1" parent="Ry9hIVVeoLZASk-tj-2A-9">
          <mxGeometry width="310" height="115" as="geometry" />
        </mxCell>
        <mxCell id="Ry9hIVVeoLZASk-tj-2A-6" value="" style="shape=image;verticalLabelPosition=bottom;verticalAlign=top;imageAspect=0;aspect=fixed;image=data:image/png,iVBORw0KGgoAAAANSUhEUgAAAYMAAACCCAMAAACTkVQxAAAA21BMVEX////0gSBAQEH6rT/zeAA7OzwwMDH959n19fUqKis9PT76qTL92rAtLS7j4+M4ODnW1tbq6uq6urvExMRubm9+fn5HR0f0fhXzegBQUFFlZWXw8PCFhYWQkJGwsLH0fRJdXV76qCz/+vZ1dXb3pm3+7+X2nl7/+O/Q0NBSUlOmpqYgICL5v5j71r74rnz3omb81KT7uWH6sESbm5v6y630hir2lU35wZv83sv7wHL93rn95cj+69X1jDv8z5j4toz1kkX8x4j7tFP3rHb1jTb7vm3+7936pBkLCw5JQpC1AAANYUlEQVR4nO2caUPiOhSGa6GFFkvYQXZBRXAbB9xn1HFG5/7/X3TTJWm20hZqO5a+nxzIpCd5knNOFipJmTL90zq+X71cHp2cnFz9vjy/KEyStmfXdH9+0snnO6NR29Ro1IH/ujlaHSdt165ocnHUzo/ae5xGnfyfl0LS5u2Aji/beUH/O2qP8q+rzCt9qgon+ZEnAAdDp/0yS9rO9AoS8J4ChDqdl6RNTakml8EIWBTaF0mbm0ZdtP28EKX8beaQotZRPgwBqHY+mwqR6vgm1CRwpsJl0manSRedwJGAVOc2S1Oj0iqsH0Ia3WQr52h0tykCGBT2MghRaAsEEEI7g7C9NnZEaCZkOeq2ut8OAYTwJ+kmfHUdd7ZEAAPzSdKN+OK62SgppZU/T7oVX1pHGyzNBBCyQ4XNdbFtMLDVvkm6IV9XkwgckaVsL3tjXUbiiUxl3mhDHUfjiUy1b5NuzBfVVVSuCCp/n3RrvqQK0U0DOBFek27OV9CkULi/LxAbC1FOg2wi+Kvw8jNva3S1sjlEGA1MtbPV8lqt/hB3ttqd/Ik5Zl8iS4ps5bMNVG/d37D3Jdr524J0Ey2CvVG2RvCU8MZKOx/NLgWpbLHsocmrx8ZopAHZUrZOE2uyyX2JDTXKtk9FmvyMfrh7KlsiCHUV3yyAymc3XXhteVQcmkF28Y7TZPtzynAM4OLv4wHq1/P+00fSrf83FN3WdCBZK+W3Ui5Xgjo8PHz/lnGYxT0NoCuaHeZclQ5zzzuO4S5mBnvwmY+lHKXS4fVT0v2QpG5jzEv3nL2KB4YB1OHb7lKYxZsU2Xt2hxwCk8L7rm7nRXRnIqis08wfQgaQwrekeyMZxRwOOiv4zGfeFTkQrnfyVurveDPTkblI/u6BwIzOP5LukAQU7VGlL4LfEpOZclPhMekeiV/xMrA2rve9XJGlv/tJd0nsipWBfZp8vQ4BnAk7ByHWnQr7/GbtNNhFd3QeY17UsX4lO/FjkDvcscB8Hx+D9p51cuDPIJfblRR1Uli9nNz+jA0BPkn2Z1B6T7Zr4tFkdbWX74zaMUbk/Mp59rv/PNiBuHx8OQr+8pWoENyhp6/PTZ2ZkHJvNDvyfQPUJyBY4edP1q3REIOHBDvo83WXAIE2ddf3OQCENOdGxz9j3qw2xb7F6D2AN7pOqIM+X/ebvXplK3X2VqwZD/4zIbUTIeZrLFCj/A1HAOox50shpRHhkxC0WY1sdTr5m0uvH308XucOoUqWhBMhlalRmDMz6529YnU61pt9YaEbqD9/fv58hbq9vT0xdQV1dPT79+Xl5fnF2tPJyfGPp6fH/W/Pvx4ert/evjMzo5TGU7UwvyzrnF9A3VsqmDqGms0mjCK1b8ZsqL5FWvs/oUmIi+zJ/FLjLfXOKMzPOWJmMJnNPj5+sDdeSqnbww73BqJRx3T42N1bvh75+RdH51B3UCtLF8h5FRwdr7+qMnv69gwjwfXbd/vOIwzPTFAu/Yqpa2LTpj8sE2Y8OPGhxEXvE68r1h/POTslWpudfo+1gz5f8a8MTH75PRGF/TduzAt1mLJfKkT9+8qg4t8w+8gmod4M0nUVeOv30W0O4YoyZPYelABkkK4rqPFeYaEh3BF2PPmEAEqlVJ3kTOLfrnbVdt36fvBJkEvbSjnmm720OnjTLhyCXOk5yT6LWlG/dSKU8HtCHsMhSBmD1+TCwR5+PcJHSATp8kWTJAlA2QEhJIGUxeQIXtO7jeyg/CtERmQrVblppO9DCy/LF4X2RClboyW3QjMV6La1kEGaNq8TTU3t3HSDaZDLJd1vUSpZBtZPMT1/g7ZGqTrVT5aBFQ42cEWpSk2Tjckjc+d0Eh5Bym4Yxf1OCkrWu3J+/C2F1t+kuy1avXrdU4lD1upgP7zStDowVUhOKTsMy5QpU6ZMmTJlypQpU6ZMmTJlyvSvqVip12q1erko/taRfz3V2qDR7XYb/WElcE3C2ouk1lruoc3sl6Sao9Ngz+t5VOpvVo8uP+wCTTWlKY0aX2ldUyyd+do/NlSg6LquANVoLQTmycCqyai5H1VVu3aNotawC1rSW/PGsi5ubEVTRAIN0izD/kz2s9+05ky1pXkUaAL6QcrBVNBl1TOhWW4j691md4iLFweqqstIiqos2Arrqv2dl1moWIuoR5Z1FXA1SbJdQqUY2J8ZNAOFrMqECqaioVkxZJHAlChTs+3XW+vtt7QETg2kiaSagHmUrqhgwFKoakKzcCNPp9WqtESPqCtMpbraYvxIMAZ9Teee2GVtEzKgzbNFMbClGOMy91QPBsqmDFTcDQfiAhwDU0Bnxocfg2lvPjiQuvY/lnzPybpGj4FADLoqVw+0rUV7va0YwJ7VuJkVMYOa2wpNHNGEDLgu82PQkLrlqcNgIC57RtUYhEFXaJqstOiZsB0DWKjJPDdiBge6uApXYgawy6g56segWW5UljaDoUdR+YycWwEYDNzxowNVBbgpVHDcnoGsDugHR8vglKxNq4qKeDFQxmQpzECnhSZXdV6T6nMTW9lFoAPDMNyu01Vi/PozOMUVKep4WRv2dczEGJIFQzMwzVIN1SXCTHrMQDVIaV2iTHAGU7KDwVJUBDHQgS3cZZTvQgz0cZcSjmi9wbhp/T3HFajzRaVaWczxOADEpPdngCtSx44lC5Qj6TrpjcIyUOtVqHKta6An0PVhBka5SosoE5hBlYppui4q4zDQxwtTy6aMsAFyhiIGBp9F0KqjHtcB6pMa5qq5/9uXAa5I7ePPKopTk0pOhLAM8IenMsZMxWXEYF2sCsxgSfsZYXrqMAC4pUvHfn1OlArMYIyGKnBLlnXnQ/ch/gyw4yC9cAXZNiY+3JiBVG0ha6muxAzWLIIDM0CcFYHlSBwD3HqVKBWUAY4blCdDjSJmoh+DHprCgMpEB86oImPb5gxczy80NwoGKDEFNaFJtngGuDRRKiiDIXokne/1zzRL/+HUyI8B+h7QOQvqXLLDt2Ag9R2m1PI7Sl/k+AWYUznxDbCZsCRiMBRUjxiA/oAUt7xBbdIYVj1HeGT5MVgA8bBBLSHyi20YVERjBk/bA1Iy1aSADCpo7J7i4an2uFI8g7EAGPYxgJTaYGtD4QCsN82fAR6gjMW8uVsxkJzHKGTeiT0UnYZvwgBlPLBYEbWIT0/ZRhUbTlkqgovXaPyyr+UY32W/YOXHAKXMgPHJDhtygGzFAPX2mPhMvEYzNmDQc2qy8i7HdJ3fanUaqzSrZahlQ0MBnBrKQRmgL7gJwiooA7Uq/DyyeYBaK5wHWzNAianlf1C1fHqKGquYMdMAePFIrx2DMjiQg5gm+TNACZDKbB4iR0mE6m0YoPSLGjTRMZApt+7YzqenHnsVKh2+gzJoOPFA4wMPLT8GOMHqUx8jp0ou0lo8gx6K6FS/CRjUROmXOB5swADVrpbpNrPpqZgBu5eIGVBbKGecy1mKcj24Iq07wp/4MajgB4qaTjXjgE+VeoJlhJAB2hCh/APOi1qkQHgGeMHasNTll6q2RAx0MGRKIQZqvUyK2wVEXUvH0rJzmKeNuYKeOThaW9N7h86Yp+Ja1+5acoqfqgIrBAzQngANK6o1WsXddbTPT/EIFyd79sRDHcj1beC9CpzDkkFOMNp8GaDkFNbkdgXOlkjXMeCXEk5vM+dWHIMFcjpUahrZGs1rS5r1Erhgaz6ft7wmS3AGgq4rjtHWLLFp6MvA3QMHsoOuN0XDljID+Scdn+0s0DSg4xVi4PznMq5O1upkuYjmQdHrIIVLT8lkD7lRWWOPugMzcIO3AhbmlOstDJRrkTcfEAO1Sjk3YpK6o0hX1elysZgamC81RvDWkiJbXVlt4i1XOgt0GID+Emowx3Yx/i4MA7lV9rIfL/UFMijmdMJdQ9FIZh7vEQ8EEYE4/QKaPtY1bAnVUhw4NFJnRBzquUcZJlDgps26QluHT0l0VZuPW+4TmQUe3oqlD0q4kRWGgWx42Y+W4JbtSMjQMVUZvehBzWF3lty8SKM7jfNa0py6QUL8SW071FVZIOpcoO41l9lZWiEKukEN1sbsCnidZTLHaOEYeNqPdx0bTVct9EiKOs0ADz7aQ3qeJzPbmlZRohcI6fR6KQADr5NptsuouUc+kfXVYga6xiaB0TAYC1I4j2UPs/jH3oiexyEYSGVZ4AgVQC9MgjCAEPwvyVgS3cDQuZ16IQMA6mxtkTBAOQWdAxXxgQVZN7sBg70RlVOEYSD1xpyB6pgJHIEYSBWZKcZfFnOs5mgp7C6HiIEOtD7f0ZEwQAkisxYYiBax3L4pDpb++6YeDMzkkAx5usqt+QIyMBfexP0H0aVJR0OFuhSpaF3+Fglz1xEAQx+I8rwoGBSFTsedHpSL4jYia6gUSTAkA6m4aGmqeZMVAJirCG7q1tE9WEpnHAOpOGyozuVhteFxX9MuN4ZPtB9paMJ7pF3NfRKQx82F+NabVHFs+28dAx/7l873Z+wzkBFnhAucOg10E6GGxu0sSNX/RI+EZfi8CKk8HEwbjeag5rek8FfZ3G869a2nV1/0p41pf3Ea6EZ6pkyfpP8BRQFn+ZaPkjAAAAAASUVORK5CYII=" vertex="1" parent="Ry9hIVVeoLZASk-tj-2A-9">
          <mxGeometry x="35.17854166666667" y="21.66025" width="213.35950000000003" height="71.67375" as="geometry" />
        </mxCell>
        <mxCell id="Ry9hIVVeoLZASk-tj-2A-39" style="edgeStyle=orthogonalEdgeStyle;rounded=0;orthogonalLoop=1;jettySize=auto;html=1;exitX=1;exitY=0.5;exitDx=0;exitDy=0;entryX=0;entryY=0.5;entryDx=0;entryDy=0;" edge="1" parent="1" source="Ry9hIVVeoLZASk-tj-2A-10" target="Ry9hIVVeoLZASk-tj-2A-37">
          <mxGeometry relative="1" as="geometry" />
        </mxCell>
        <mxCell id="Ry9hIVVeoLZASk-tj-2A-61" style="edgeStyle=orthogonalEdgeStyle;rounded=0;orthogonalLoop=1;jettySize=auto;html=1;exitX=1;exitY=0.5;exitDx=0;exitDy=0;entryX=0;entryY=0.5;entryDx=0;entryDy=0;" edge="1" parent="1" source="Ry9hIVVeoLZASk-tj-2A-10" target="Ry9hIVVeoLZASk-tj-2A-41">
          <mxGeometry relative="1" as="geometry" />
        </mxCell>
        <mxCell id="Ry9hIVVeoLZASk-tj-2A-10" value="" style="shape=image;verticalLabelPosition=bottom;labelBackgroundColor=default;verticalAlign=top;aspect=fixed;imageAspect=0;image=data:image/webp,UklGRhAvAABXRUJQVlA4IAQvAADwyACdASpAAUABPoE6mEilIyIhKHcq2KAQCWVu210/wEUEyEGBMgcbNl6eX+gCCAGA7/JvIA0g3RrMVU/Y/qGOdATs2+mHb4+a/zY/Tv/fN+z9FXpo8gK+p/3vzpfYP4Tv//ROjxw/9df0d6hfYFQR/bd5/AFdT8wv/D6gvvZ9385P579lvUr7F/sF8APlx/y/Bh/Af7r9rvgD/oH95/Zn3f/8v/7/730K/Wf7c/Al+x/p4eyL97PaI/cjO+WETu5pA+dz4uVTsyrQvu292gS84RpdbwobrdXYgIY2LbFO9xTGCQnVlEddh4/mRmoN+zecy26W3qZxhuEn1X3GbVthFQjV6Vp9vG/1IsPLtPnJYsXxyLftF7+Buf4kevQmDqEAz2ilCqi1IiA5VOud+me0Z3xP8mr5JsTOhmcN2FbJyhsGsFzAkdHAxFsJFLhGoWznpaI2THUNY1XI5XpjdsmhA1Vn5B2J2MziDzwa4dNlN+gdQBvW3utE8WdT9TaB/qXvS/UxfuXEsvIMoMIa2e3+OOk7Rj6GFG2zg35rdfyqiYNgdAhKTN//9Rx4D32rTtvI5078Skr/KHSt064vPWYnvcLVbl1ZsbHbLbIvsyuDDj3rTPaMcA7rWs6Xi/jZFrILqTFOQx3eSZdcfsCTuFySshHq10LYDAI6n+za/thh9DJh57kN5kVydzCl8RPiYl2nxkKEA8mqbP3rTF6POwiS3crLRBIAY6LiQTS4gH/aj333jFlhwlzR7/+RvnYcj1QHbiFdpVsxWC+nyDmQj7mmPmIFgiT1N2LHLn20S1Noighnp/vIQjaHr2GbEtf0iP0VJwbFS0nNCOgZs4m0YM9dPyfDxfNhWeaVv110CoSiPo4n6xf55LR/rdqBzN9EHpTCGFSHa+C1ydS3JdVUA25rzWE3aO4bNM9DXLKXClog0gj9D1WyHs/VAU2n1D/XzG8yAe8MjeXvb3v9glziMhbz2wnaYdMQVLlYesLsJ4CqtGObfrieP1ycBb2Hphdw/5t3iU8YewVMJ/FHZmMIOpy2RDphzF0rq704P+a/H8UhTRbbUU+5Oawj53i8Ro/S9CWoAZGztO5mbIGwX5b9xxZ4U2gX2HUX2XCFC6tNya5q+aq+CppKau6pRDRoMWt/pPz79HFsnmA0mZE81ouRQkmQu8mf+TxL5ALY/tcqAdu1RzsPfP4mmDPU3M2eObX1Bhq037K61O+td+tEY6aaZOYvSB3LmHB5RHY3olrfO3OC2L+7tkI8eVQrSsJnYTo90EZXbQP7hfc/Slq5HQOu00ufHCoY8jFe+1EeH/TMwt2DeuAB9knxMG06AanQ4gLjyGISbzjOL2UIS+j2eP9m4+flosOZxcNLyGOFgAdmxi3zbc8oR2syvwkedtDm4ZJivbZqH6g/v+vi40tMva9GPq3012pbJutjE2G5fQFP/ADkei7kge1Iqmpg6BF/4pVCig2nVg39vzCP6AC8ZwAVdL4NpS3TIAKOf3cfQQClcmIP0gH4+68G0kBXxqEmxgZj5Mxh/uHDJSVOLOBfeq7IG7JCrzmTEvrYMUBnqcjfiV7ZKQkuLzGljr0Lp06ojgvHSQwGemaScmahDzy5cie7ia+UCRxccRmeHpMWl/xqu//0OruojtF6LB4g2HjfYBYaE8CeU0R0XjREcDtS2rNhymufT0burB1KkdJEY6KoyqIkQKFD8qZJrDKsgi5E/Uzj7Azi17Qwq39bw92U35YZqUFKc0/3b1Na7DIZJnyYk2689siv2eI/an8vs4HWvYRG9rJWION1/dt1b6Z6/pIBXExBYtSe/4D9sJSkfz6qQ6cIQHrU/ojKEUvAcEEoFjVR0vxi7Fzm2mijSzS+KDjTAEtjQ3LW/NInLE1YJmbjs2TfWI9wdEAKivez2mVuJXDxeKaZmnB9kuRYwxQhqMVzK/NEZll3EajXpudiJCHEiGG+c0JSm1441MMmYaSnVtvjQ6khLB1XRGJ7wGbYkU4xRt8IkdDe09pBDb8HGOMDAUM9oxyTdZeqe5qhwfuWC0ruCEEI9UoxveUb6q1LPbPYnz68zxbFJ9Z1YreZmUZ2EQEZtNkhnm09EDoCmg45H++BAwPFr1Or12AW9pVim9MUNg4dZWNdUbjY91wqFCqBM9Q1gAD6wBKOL3By9ZYi+H7dmCjU4IeN9kMhBabkgIBSECRgsh/opHXXDJfUKL3Yz0eWrplx6HdSXzrM3CWdSfbAbM9STJe6X/4smLQGxbAhIoPXQdO0OjfFCs9i9pJHJ5JaJ98rv35JnxK+tJ1dUdGEx0iUbtPB1ZXhtRV0/LC98naZOSQFhFLrx94ICkCp31bH3qNOjYMZqck0U1G21pAFr1LqRs+cHQ9LoHfIB2cRxdQTsypu/MOMmCRBdzYipyuNcAHDgYI0eCV6XxSl83cCYQWi9D5Ntlt1mIWXhAp+pG63smQZnE+JK7DD9FzM0M8Il48245HcHWrpeBlGltuBmULcrEupKlGRfyfmwWUfLvZPh1QUnWnlX6V7Em4dOgHug/eBt2qkukY9xR8BG1wAejLeo0usYRz7+H28w6/cwZw3TEG1gwxRqlpHJQmJHvgIE48c5yNYMljXUAsBSxeS3GoOJVA7ZWZahR1/a+Z7zXyJoaEbAaNYd2xtV8wK6J5rXRU+PU+CapK/CR3rYCK/8VbvSIvosuW/RO5wBSE9wdyZe1RKsE0P5fhIUiOk7lnfreE6rnmFzXPs0x5nn/vrA8PzROR90VfPLZ5mDF4CJtHz7drhS+VCLWeS9fr+8MxzYhD4f/v/9/8TviBN7C3yStWHA2KmLO7d8jgz3J7Hd6xqTud6AXOvvYIlCGH2COyjG9DmuxHjYA+WUX16HLA18fYBit9UiXwWebS4/zcuhzaGMtWBKCwPLpA8Y+Wy9nQ8VN8RzQi6wErHKWXtdLaTsVf1SuZH3riOPw3anKdHQxzpIFFl/r8XxCTo+tIpQ+alscoV0016UIqaCMwuuHdZrShaIhopYWLS2SmJCnikJuTg+X+mzfjgglOS+BgQD1PDHsSFsLXhL0piTKomGNMERivZ1/T+qWtssYHjzuwwwmqWSPzqIml1ruBYUQu1k5NaYyafjqjWOPvNf78DwayeJgq11giPR5xRKw/EPyqJcUEnEvqoAHMOWGJgcNiBZQUOT1hgsbyz4s3YM7quT6Eiw/ACMImgM6hcj348wN6HmwG4RAIGYaol2uCeL3K2hrXORE4BL8yXBX42QfGG9xlHJK/hG/Tqp5O5NrPKdbeLf9gHvEmM1xI4OpFhsX9psWaHprWL6uqXi11MBABVFY24ywcSQhanzAF9e9RWevqL7rddIDJYO63N0MbWVONLb54qPdFuTv4VK6FJxWNvpQG0M7eMQj+Lvdh/kdwGZ/r0kco+8/y9y9YFTcTo7Dkn1JypvAl5u+sG473MbpR6RfD0TjHukP3v8tsP5GdyTlMleI0gtJS4NvhM1PDfT3hiy+6lWi6x9Ehd4Bvp7U7wqUFygFiu0t8eExKOc4EWCVIgtLNAvNrs7DRAnvUCKEBh07CO/SV0AKVFv4azIPJWc66LfU9gTF/afSvQnwGvyBoL+9wLgVtj+ggxzvNaX8xSckZ9cfYfg9iVWBck8lL8CYHxEs/LkwxZVry8M79tl6Y3P3o4ONL9phUEDuhv4zF6kWyTxpgCpiPYdnkM638Ps8T0+sW9uCffkxJ0aAhE9IXY2DTSP4e+wm82/+Rh9lUBcdHMMC3GKBXVpQL/joKTLPzRQbkrWvLyX8ztnlwZZU7PyVEOjfCOX62S4sYP3G0BRDtHQaABLKzYdPy9jyVVrkqNXUQ3ykSJoOBeIrSiTlDfN/qnH17GxHhDoQoM2I9xrggvKDXSzis+9a1jY7YVCQ4b5uM16K1VN9XHhweiXtPjUO3A3ZeMOqqekE268HEDi+1/4d2iyA9d5AuWzCAN250c5QigAK8JTSQfBOSC5/GQNbN9PXJRtTFIW/Wrmu0Ph90L4FzgfR9mhAQIeXQvaBex58P1co5h6JQ30QsiS1rB5jG5HeH6AYwmoO6xZ8AkZBYeJAUkzkuzgHiPjO6IDL/+gAG3kUxLRLTqwDyRIJPVVL3GAKi/bhoy0FllcxlWAm9WFKp7yt9cxNUxzERSu6XVnzN076fhnKrwE4m2K87USSeAgQesM/s+jp5lYTKuaeuzAC57zWqK2u9tCn4sK0BmQ6FAfANrZF5yznHpXh+ujId0oOGXc+Dpj9XziCYVwcBWkKKXTlBYuTWEEB8MY9CktSlcbsf3BD6UToolWrkH0ehI6BucXZoig92xM7hyLubw55oIYpPoTKWfLfZUYHWpD8k6YeddmTRMbbJnlnsJo100d46FeQSAHKQQ2okhhKx1FDQucmUrJ32nUe6rqeziRt1TGSlxWdvhytDo6dGr6ExiHM/1nhnXe+lFeZ31/40QMiso7otHnYXNJKxvag7dj+/JOJGBe5KJgEJJpbQKz/sOzBRR6L7X/XBQrfh7i9Z7sGvKqZFKTew3gsUnJjANUxMC9OpesVkJPw4+8Ry1XumPK7gDhG9LVi6hDQhmjPxWYGP7LggKdD81gEYsjapMbs0fm2mpeTCHUdlrZoqeSP2Y8i3ammVgOpJsGdAnfvyU/6vLGTRt3OXV62jZN5vEmDlK5+FPKEZqbopzGMNXPhVOkKvH2XfrrW45lhmacrDlh82wg3Egc8xtqc+6ogUSkNWPTq5bVLYG//RXtVWaxXpPwovxMWKbkjtSZYZGFzxzHr5+c1R6cGOgeyphtZBFSxvoIk2ISFaW4irHP2GeAlltJj4Gq/0tHN88iws1QkjRu9XsanVT86cam9UXurXL+YNzjvdGlh6ka3dt7Y2pyBCTIgJOfim0b/Zz1kJqwJYuR4o0/92fZnT/D1GkRPwYE9JX36NiI6tTeQ9gIt38UG0B4F+JtmRUL4mPaBdtf+xkVl0zv030eFH0/ShGM0aQ1p8Ff7Ns+Vz3QOfw4QtD6SD/3rn4fw6FSmQ1L5vbrhUT8a7O5oEBQ2UdmXinbVs+wAiPQG4BokYYGQGfyWZbRrFM1y91DY4+YnD7bVpRslhFvJhsW+Q8H68SWfvu3bnEuo62+/BvtqjKfJty28PpmLEPymBmMsws0YfNFOpmBiwTty/eypIwJZfxCWxfiHdmBtkmcM9Za5Jzcospq5X6L0M0xOlSywoCfYYjJB9X0MOt7h4tWSxsdCSyWwbaf77NjjwLBZG3g2vDV+y9xZ92h3no6XlTApEBudFleMS9Haw76mnG3mw6Ye2FDsUbX6AJ5lMSkFhLXP4lJGQb2MTSMNO5Wye7V5rMzStlTmfhQOxplZ69tQBPHYcxt/9qiVRKX1oxAmDJoOdeMP1ZyMM1LAu02teGpMU3KiQlBsPmaYFBHs3O9RQ5RKtIF4n+aFGy6Hl3t33wTqjL/CTVehu5c7zQrrcEjTni71m+1qmWy1e29/oL9QtgWNMUwv8lQ/yH29uW5JndSH6Ua8INFvciqi7OqN0Kzpq8V0pXVyi63ouBSQm35gilC+hdXFNx+rtBaxyx4blFmXhEIHnq1U7hc/acpI6D6EbtgIxlet0vdv/5fd4bwi+vKMwB3bCk8Rw3xYFGQKqIVMvx0Nf7uis29bSnsqeVtURLZuAqGiPC5MdEMnpv9vQQQ/Z4vHmfaP+Fvy6rhd/tacbJyiMrjnxc/Or97ogDAO8zf5zv4Lppw6CK36OcgH269+iTXD6zOv47sfhFlDsow2AT7aSKrxIuVqSLcpYPXs8Ds11OR1GMXQWqOXiqm/a+0aXEyooom8Gjf8HuUUjXv68/eE4g6477EyO+Q9iboOBXgVJfJh1Rric2EhfGdHYSK0zj4TB9RQqTYv2AlWCnR/igcfEVJ35NZMMQq3Sop5R/JyIkpY+vRTe4dhUcsIR5YHtFoRkVpiuwbTYtHv2AdNTAAVkKa22XiWHamBrKU1LKIz9carra4M7DvNnW9AxYWexaaCGOoXYLGBqCa9ybGYgeKdV/Xox8vXq+hrxhyttkYr7QtXEJ2laabQzeIL+7H9ky8lt9nc4/+pnCvXWQFQnqfJjFb1spK1YvU/RhCk2cniPK6xOChHI9ud1FOwUd+nlNagpzcB+ngHrmlxJhRM7x1U6axo6wKmJkkAQ9HBUPaXdF2zmmkaXrrbY8xUAEHwgHJh8GUKYdZnz5tQzjW2C/OqZrXBIZD+7TEiqpZIuplPpsDapW5u3pq6cT1d7cRouJegexUxtNq+OfmZUMIHxgf1X3rKU16P1EHjJ97AytEoBTxcBrX3mwOKvbWlJOGd7eOPqI8fE2mKHgwENo/iIi/8W1px4A5b52RT6+lKAjgLPN7BhzYLKHxuh+bKMJTE1p/fC0XrgZEamy1rCvzKdkUZgoQJYx4IzU1e+E1z36K1X3mJcPhqLPYvs9BNph6RlyGMyu0qcFqPIRH9o+PJOrXRpHp3BHNCemHS5j3y2L/ZzVCSxETUqSKHuTfhepVu5iFDGAfnI6TXG+0czkiBSwh//QSQ9rWd1K9UUpnFPFM1VAzTL1qDZPk8zVHs/LP67ySpfM4ZsY20lmtAA1D+j7CIZn+4D5ktQZ4h9Mz1s2kTOBN28vGyGmGm7wT4FSA8NeRMREWnn5ImHZMdIo+VscmTRqzo9s+VPuGi0FuGYNJMszAZywmGgITaNAn8inDtzooPFFfF+P0+X3Il6pVZpJiEsO14/qgubb14zB83X5JcWqbzTvHudoTrthyRhsbf5Usv3ze1Khe0opYU6xekrL/nN8hI1jcrF50a+gm1+zwy13x3G8O937T2VNg3NiT3T+BqfmR4fiFUMRzS7LK/PMHbdF8dkKoIQcDJMgG91ymB7eKTDH11SIUDIGsc69G9+p/4IFRv2qpNEr0cLTuoyqLUtV07xLhdIkZzCjxZ7tWv5pSuDZyQFKFBDJxca7jMSvFdxJNKD1yyHYeGeYxlVxHi5fg19Gq8Jtf9L9VHXeDfZiraG8ymcjI4kmTOq/IFzRj8/h9if8suvqTmhkZEBECAovW8CmFTJhEK9nePo7M2uP73rUb2KyUlqa6HIkR0BQEpSL0WcHDnqSFh7t8XjZVWfBSfZXsbBxRvtQhIwRdryqHT4cgco35eylzSZMcrRJorWTkL3pltM04q/NN29IOzA2TFzv2Fow3vMnUxALnirn0zeIIbxVCjdNN2Z9GfHxtnppwe/a5LU58KqQjxM381KLVGhccFzGuZve5Wrr63aEDtPDbDxshPPjBaIlGYqfwODGUvlHgnttdhc1MsBOM+KWKgmW/YxeS0Q23wiIrFiewTfs8gCJdIXLXBJuMpZp6/Zbzoxrd2WCvVo6ZzPIhexDLTBXYWMxKuItuT8yC4/WUfSwLziBVrmC5bfdtC72MVUtHhlEREWzA/VHVb0hh+ddR4rlfJePHxB3226BbcrModB2iHn9nI6nnw7POwuSbOv4sgucruzicbRAD0jSSChRDXUQdT6XZHH8diZ1eUct0DVaNXh6uPHNrv6kAc2aQQ9IQfJ3LUhW9TKfVBgM2pk6JkrwFT7Ub4Qf2tW5mTdEE2jxL7ZSzWMOekOOaNY99WejjrcNfwh5Hul7af+k1AM56ZfQufJBhARvxuSaxvEW+CRjxxHjKVqz3FYqTmpDZ/Jhwi3/HmQmTNBVg0r8AGrhFIPYi2s9jyLQc0lTQVion2+fE6HG5TDURlrzmIws3kUv4omG4Sflugz4HDa/9TIqGDC16aWPAn4AAKeB3sOc2bz2wtBv7/ro5v5q74yoNul3HZnixan7S5RV9O6ndpWjNhGjvKvCTjW5Ww2bzfqt7F5df5BXCNY1nL015MVFz2e1tcJMnvmZ2kWD07lDuXyIouuGReta1SglcDE+0G5dtuKT/9f96NlwMabrmF3kPEyKgSKScV1EMwXsJadf53P2AsKkTTPoqMRLHmpKaXPPspupDnRdbAUerT1aIjAdpV8BoaNQ2sruXi9phD2yeCuv/F26NzVHtSEiYdpywIF8DeSnYfG57WRZBPqE15u+VeZKULw45YCVYliFSE0NtFq74UiscKNT+MrK1Tj/URgtvtREhUhW2O9JxWajB7ZjT8MrBpFeHD7EZXzt83Dq6l1cdgejH3CYU1O7ywq5l8HSQPsCgVYrD/seT65Qng03Kzy2/hrWGAnh5g4I/8Ri3JEq+A+9qv5WNaZGupiQ22a82w6baI//Wopfy7YMX9YCBRIsNAoUNAFOZPeTSGqc6Y1X43DrcG0rOYqGfm0zYbXvMALCvOactt74V31CCAv1de2HYeMrauZ6sVsok4kv7H2xuVAjbYAxjaF0+C0W3xMVjRJUGJcPyGQgFmTxfPaMCrjH5KQRjCeNmHZX0fhXNPEITYJ5X8bHMOvWkbSUqtD7ptAZHHkHBFFh7oXRZC4WISjjTfHmsSElxaTOFrmVwymyoCSw2te3XHGaDtwbcXzwEjwwqBLNglecwzTvq0G7blCoWaGZdHnk6CePxqBv3TUzA/9bjZjILWnCJOPUaf+rHKxDAedhbpXrQBrNxyt3zqSLENPyTWT44DAfE+2CGlCg+vA1B3e+N4pHEE/g5aWZP1UoAGfAIPPsmJSc2bxvx5DZs9hKzQDnzC8z7rEU1PYoshmX/9oIGf+OkCxZM1oJyYWjIDdI7xOFwDjbLY/Xn3ssL5KTkneUKoXUtTtz5fqbFcQRbOG9DURdFHp9IX0ZJJugMrJocgbQMr651qNULgpp4kinzK7gL3tcAKS/KeIJ8r/5J/roTpbzR6Ki69y3jSvUAVa5UT6yIrgSaRFReeDf9MfDah0IC95uxAOKtmi5Dss0/wboCwLSXVNUNwIas7oooD5u2jby+k19iPUb8oKkvsnqVNN2kMysFmpz5Nfp8r2cKvC991PeAuIXvBZQpydycRTOMONwTyrHsr/d9VRaqiTUkQfHnCzAFQ+zM6twTh/v+EZXjO+193zWbC8Y1pWTzVJsfH6ZFL10Er6NXuD233hD2mEYYGDZB4Gry0JhLaZ7OOSVaE91Z40bvKYI5pmLJcTg4IkUo2yBk3mLL80juapcgQ32heaRDziytjFUhgG9fssQHeebnwDjtcgCD2K3lCd2rqLJdKL5c2Ql/OBxggj2bXaXrHF28kU6QEFcbfRtgOEaFGvr9e1p2GkBXfW1zEVqM36Q/exbJHl1WYy6KIXDYMcNT5UThyKtU4dPwMmT2fQgT3lCjgt0w4VK4z+fukJ8QQx6nw+hXiwJwKHhFJrgLL5KbccNIPtOu3tkZrbnQpgkl376pXBeY9V40gqx4OYQCb5XOa1isi8tFja8Q8T7zkJBIp/jiKobWQAD6iIoInk1BXy2rY2JRzHx1vAVVZfdtNQ9+3Vvgs3yI00qhWZ8MufdMahbmy3Ag+tIlK8Z0TcPPnirI/0gqC7npyT8cwtw4iggxqQq9v80P8N/LiPFl7e7Vl14vFDPIk4qaVNMKZlzAJlbnjwOBCPcllMhCBvkytkmfTAriQB0ESTacPKrP8qyNs+iHhkabrm5d9u92F+T2ohLbnZOFVFulD5RuRY/qLZpYujJnbNuCkHVWPDh0EZmWfhNFcDf7GIM4aWIau54uKljXR/iX1cHBNzleeO1UvkvC0tge5PhZAUK5MArbSOAtkYDaPw9zSrQvhbqRXmPNXB32hg+wAY8gjBH+ndIFvk/ewozyAkwRDT+U4cTqj4kRFLBZW51y1uZ7lsJws2iKh/GbFbivMv/Vn7Aq2gfwRIvvH6sjq1DJ7KnCBkvbfZldbiwsw7GTHHexXcTaHMJC58dd8mfNeRpFKPGcW/V2L5p36H4O61kkWFOzegy6XKPq3/pyN76Z9DRNvjJzrESAKJAh7CDsFhHfPH5FGdt3NGJ35GxSeJXGcpsmb53/38CMKbq17gJS4SnhrJHdNdohOBxVmnd9WyoOsTrx8kHB1t7TJxJtdGVUMcJbxx0wbT+h91sginiejSpPjU6/kSaqwUZSd+Ss7dus4S9dy29GIqKHYettt1oZ4o//RF4WfwmsLhi1T5+vARRT9s+KV1mX5FAJdLQs50wJdnKimQKkut3+f1ntjMQM29/Sb3OBVvgaTggNi6+ioco/kRdG6WXCQNyg07yZEqiMMNY8s8c0/RqPQ2AUAYY/R5G6yOIELUcEbAsNDDxb2wEV+YDHps0VZDF17qqHhxqsiEYKpgkMZmLiG70VqcfV1t/ud3wdzlhuiUDkq/dtsOV488BmNV2fpOfjMnHUnq75I5+YjcQn8H+2ZFuZ9Q3jX+tarJDoqK3nZR7BQYe3nIdxWYuJgA6gpnP7+lSbEMfmd3/JBk802St4n+ej9TsbKsDWqDdn9nVDfDuQw9uhMybaVROOVAtr839nSx48Q8XmfCRdPgBReG3GV1SH9sDqXEqIwgJ5KTM21KbrVKXC+tv+6HvvRbQrMsgpyF/keP3f80sxJneA24+TtEl6w2651zgepl3775Zbzep24YjNj4awXiAnoHrdVv9LEvFrag+lsS/k2hjNN1aDITA607Kze1FJsi8x8qnHEgZ2RxQgJ8+DjUr+L63PPv+sUUAX/Y20S3jIUNxCyZmnYwJmAYHKd2zBKdZL5Y0axpUG7lV086K6TYa7DNqbQJYj7za53wD7KAAU6Ko6E3gSLPNh4UE/hBiJQxksxJVU5xRbO8qoGjWhAu4sE7uiw102XuKcFoU7zdDk1YAqKMeSBWSVsUKgPAOWj3wgFvaEhQqLyvVoEkZwGB1TbFq+OHQng65v/JZ+iB8MZz+4f96I/hbZJy9P1R9/h4fsQdszXRsVNENGDNEkiRJD3VCoX99NJOKEOhgPxc3fFyc57hjZcVFMWl7LQkIXvsNyoZKD1RaOmPWiOU2kQoXwsHx2G9kRflBusfQv0nx7UNIHtwIurlnovDWjzcWOmTiRMfygAgpN0VVpazq5tj+AOw8t9M+bPnpD7jLUCDvxyOEtN5az1HgYsnPmFhEMp+5GBnQafjiXgLGArWLwc8STL2whRfD0s8I+kv/aSQ63+ejIlzk6/5BxgLUBP+T9fFv6qLYOzfsjgFejQk2+9L1kWzHa8YDuIMGIl4/NkySwv+n0vz+1gO5xdKYktgmIhtt21nkP+pT+tLqHR4blhJ4awctF0QP74wzYXCrWODfN2P+obz7+q35YdDaRmZHEX2z1OT3Y5E17wtXuvLGm4S2xXFH7ZaEqEt8TivbQcvPAg8A/0rMlOza3Bl4BGXa2/Vd6n3Esh81EEIsqmMjRMU9zNsnTM6yBkAmZfxyqKQW3jTcsYo9nRXCAANkpGhK3UWvJLv3S2RR5feRcOxB088mjZLBdO1xdHQAFuI7ejunUifugvCXq8TkqrCoBjY2MMqm3+9hrDb/4rLuL7QKKk40BUoeoPiZb/VlsKVGXDXDWi179dRAWB1c6k+GFi+Qr4B8dydpccjk40YO5lvKD+LDkAjIer67wS0A4cCI40cCUCE4iKQnuO7idjUavDbu1IOGWdVHIjBPV+jU3SBstigPZ5kkck8W0dyQyzk++qMFvaCIIIZBj63jxpzfX7TxXWwx8nBncuiTedmn9sqt534rAhrz2LsVsQ7OEz4b8tlfIm+Ks1SVo5lDz7Nv32zRTMvOoBiKO8yNgYhA3dSBYWQWnAWNurBcYZmn/YVb0zk32EjkZdEyKmUPEHx+YAyOsrRfs7QyD3DhWmgbxePUtSJlJ9FGsimXseHaM53i8BYI9aGVTZXl3DEtx4yyveJv4BUJmvqg+aePFcfUUxCltnWLtyPoyq/A9k4WLpMN7nEbT2deMTFZoozSvg//nhRb8HsyTyJTXV2oazx6T5QmmZ578YEEglKS1+s926niNR3W9tTKBDaQWPjTF945N78Ll/CQkvUTppn1oLVBIgqcy6P846Yv62DILRwcDB4SoQhC0l/br3jufjyMUD26R93pbXpdH4TAxXRVj+mB+SiEjliJCH8FzPSunISmpjX5TleJDN7ZUj4EcDkn8Wxy9iXQGSScoYK9Tpx1WFfHp/jdG9i2+BDvaojNrq4tpobMq7VWir32hnNX/zEjrj0qIGjZdLA4En5KNG6kRQ8NLzPQtXIEJbaa54AaPsRIUe2dPIBTnqhn4NkwDllWFm/oqWIwlwWCT1CL3Al160pYuruPLgM2mDYcesmQDlP4gAgMw4kqpt7S3ByN1v33d1QusYaU5gJouu5f0dHaqP9SPA7Kt+EYqEmulY+wsmZran3VLHPcpYp9s5QO/oGM2Oty91emyrilmhjyGq6PViut48pWqF08jH3IDQz99ICgLn91qH4KpABCJ7UQhGDiTBgKzN5Q07RE2q/24/6LY6ILhhic9qMp+CaYtzD+Ntl5a1P1cKKWBLTVyVCIodz4mAvrJbN4Zq/W9tsMzzurTtEI5LE1FTiAl6F20CB2weinNYdslvRmdbVpn5UVF+MSTHpLYxnRkyR964ibGer1AjwMBFGXRbcd8ZKlz6vANOQENVeW4rmZ2fCPr/SN8T0yptRB1zz1ttOVw/yeck49/iH9f2Dh/q9RrRwap70s2hoAZuEIyK81WGW+1yqF5uPYxEOWlbDCb1X0SqVRPmrcpnv+mU2tgaMtuX4p8OiEZBTACvFHsFCiXJwT/IFCjYaoYCGXltgvHiEkKfEEYElaT/8fPACkKR+oM7phA12GKSUqRJ2wHR+NOvpCjbdIznfrqgXmfBKhzMGNZIZun+auJEmZY9GIUX8NH2upyw/Gyiofcf4n44OTDGjBscE8BLSzFZevLnxHtR/MmqEeyXMShAbh8uPaeLLDuPWJWHQC7jcwMmD0JGKuYfUpqr6xsluMGfURMezOqJiySCQjN7GkAYU192ybM/hi9mS7r6NdyhzlHLcUDmvszuQcBtdeLED5ehPvEtw6aodiIbDpoOhEPfW1wBr1Hvfb5r3YmY539pNSIjsgmRfLM6bADr66/9rWkXP4FuOewYoW7fzXH7pHMxzc8pH4MUIVv/zQH+PBp2XJm+ajKu9YxBntGsgJjZrERCdbNegS+atg+pSCda2DCaBEAAuyCU6XcR48V4L8kxWj6kdoxJyL6ySOo0gw9Bno2ssPEU9w3WK5so3vlp4ndph736y/09OD+Hg30CHte09txDs4UaOAuPl2ztECENzxbNHVMR/TRRJlBX0vWkNN8CyVJAh7y3jdqnk5A881L0aGAiFzaMVnlj1bX2/wTY2Ky74rfFncyj2hvd5EYqwvozQdvInUEYihMxNjUWi6Q/P8e4459azSz3LHaJlr2XM+OSbt/fMpoq6IN18onhALqH8NVxsqA/EdwnjN1xh7H33Txqzzqj1RoQPhAPpJ3Yn8xKX+bjyav7fNs6fH3nRmtu5/+oPvECeH1BElccYhcRh0Tl5zar4166JH4ZHdglZpWXx9V1ckmzFgA1q7tOZbk9NWwimkqj1xkmxSboNLIIL49KCvP5czNuwUH9djCuQrpqA2jkpoU9Bg76+Mart25E6WJbBlB3dJOe74+eMKO+W4jYPXS14jiSbP3sScYbXOJAQqLyNzjHNo/iSnHV4ZcwGep7IXvqCHm7sO4fOjqPrGYipKN1jMrJxrYIlAdJzCTZCIXnMnfPbTbJEB3FSV0LXDeuFquvvtCV8uUNAkJSxtorCRl45tsY8Zy98YJanqbVYrQsVImuPjetRi9IEO8dsGb+VPWoc/+slYOzqj/yfK5+Kl7AeYnivWk59d5SsGXsYkFFfhcCPX4jQa5ZGGaVRmeiQFQRS2p3XcQoPuXEaK6eZscggjfN26akgCCV+eCOGzmiubG+P8+kahJQzZv92CtkqkO7OHne3coP9tV2a5MT2y08rm+VtwbZ6z+f5Ck4Y2Z7WVoc5MtdC54vImAlEdwX+es0R4yYjAqeMrLI5yRYjU9zW8AW2EK3Gn+3g11YG6F5dtqoxo4RiXBJOYm5Q5y86NvAICQwv+vDjrZLtzAG+gr7KhuGknz2QILRLH7NNcczxL4U8iwstdWJrt+waYY18pO1c9XS4HzHli8qoiYIyqbB8vSrwh6Hzcw00nTGLbqGENrXtgqBBdQdOE3EGO/q0kKpMY9DOmosuBQbS60t0ULsAi0ezRo4LzADpWoHknDf7nbTdGDve2KSU1GzehEuSAvqF8segoCZqL0LzCFWW0k8Kd1ryFpWHV5Mxbn6cQSsjdJs1m8hYYL+GfkDXrVAWXRDUFSGRf8gvwa3i9GJHwAP2tXfIFORtfESufYvtUbFgeAJDEgqnkNOvPwfEzUl4Wp22SP9FMfNl5Gcm5dk7CBq8Kwi3piLcyTR4PHS+EFE2hYxL/K4LQwogFjYhcSyX2oACF6novd9CTFM2LRG67FYhiQCaquWhP6RLpx6dUaY/ptIAnbHtMWXNnnlS0f+sjEoYpu8xNIDG1tyng8NHctVbfr/DI8dnxsF4WQYt1QeeuaxeA9i2u+c/FzehqGhs0VXQqCgCjfZ1YNeyxWjVOANkk7fUoEqtUqqf6omSiBGiB6MLB5in95gaQb7K54/H+2i4c4lilk0i3IS/ol9GzLq6JOmqyIJ9/6CrzUYvAouWlHP9c6t+bMhrXJPCPLnvj4mKHQ8PP7pPtNMb6/3LbANkrfRfY/1kUYpvdqFGYjkNewC9WN1F2k8mXO3/I9r26CIyr/tEkJqcg6rxg44TsVDYxiVb4vRggnvOR9FKR34IwuE0FaLgxpMuEJZt4slTqHrBr7QP3SV3epYhBmTBtbETZSOiYAAbPH5chllSqKEi8oV7Y1AoMPG3B6zm2RkUrzhA2JeXMXkQl2UQ/T6ReAA1PevdIGejp4k/gyDzSJeudUHkukF/IRPgJXP83xoqn75zR7m0Wq2L7LrC12DUksdb2ejuV4wRwwpooj5N6iknR1PHCpb9on6w9Ejb2XidvaDqlA2Nix/Eo+gqli3y61qWL3Wj3hr5B261H7GqwSQvnoU38r5oqbZNd3V0S7Colht3lP8oprcXR2O942txJJSCSKkU6S26H/o/VS/yP6ZG0XmGuKWUKpvU9vxVE+De52Z/YkVaAfgYrJn1FRpVdXVIIW2+nOtyEsMHN7oVFghwKo1rADRiLuF1qj5W76kmSfTRWpN5LA5Tq+7V+1th6uGT21DFgKCGc+FW5gq4DNFum/KdwA+EImSO2I1oPuwJOaE/Y294rpO1eX6QPMXd5AfAgpbl/8pbneOKXIBFwY3UrOmqqykO2CdhuMh2vWMR9lAL9pZ/fef9ycf0PUbxEAyW7tdvRfbwbnOlAwHBybHbMPyLMFCYDEUdwiBRvCrkpwlQyW3OtkmYykGf9E31aQR05F9jP7AdWWaj31RTJQX7wqEmIDMlPq3RtsvAt6FFRjU+wk/wqHNTDX0B5J9RTgXPeIJ0eogClgr/m5VOWB4VpxexLgqSm0qfCRWT1qd72nHEovLWVUNM8wnvL44Cyos/B0mo4hkh5wKR4Hg37FrZdqVQrpSoPC/LF+Eq+a94TJGSo1sA7VM6OWlEeiNuEjOaykeF5XflZxHLlNVIRBS1WnP1Ma6aXuRGxlZvs4PB/SgN+wujNi3IoFAvPMiPuNtyVEHEu9fwXwtGplCPCLTPGddX2MMBU9OpXRldU1a8xrK/Kohav23RVmc+8tMcYem7njPD98b8/VuOaghW2Vwooi+9daryoahgnQl5VtRzlTO4H7ZewoVczmKHnddzRGOAt04ljSPJNDLaUDpN2A6QyQw97TVbfMBaScsufb61xb2PMVp+H1J7Oo+nT2ab++C/26BaZ/Qq9gJIenZN0ppQb4pSduYPzaK4Lflb+M7d/ZRsJAzqjnRbFxf2VKCDQl/+PXiQXKQU8FnjgQhPIX6gy2MzfBldscyK+PHKcr8IaAsSOByAxyzeyDiGg7FZIZqsqEpE64kM/Y7tXKpVrC+bXkA4NmR9XOQO2aaaoNrnGCUjL51/I7n8Y0fSMiLo/PbUBbPxinQt+Y0SWYESggSw9URfgFIH62l27v+b0dZEtKaI+JgSl94G8gJ5SMaD0ldlckZAARwAAAAA=;" vertex="1" parent="1">
          <mxGeometry x="10" y="82.5" width="150" height="150" as="geometry" />
        </mxCell>
        <mxCell id="Ry9hIVVeoLZASk-tj-2A-12" value="" style="rounded=1;whiteSpace=wrap;html=1;" vertex="1" parent="1">
          <mxGeometry x="1000" y="90" width="590" height="790" as="geometry" />
        </mxCell>
        <mxCell id="Ry9hIVVeoLZASk-tj-2A-15" value="" style="rounded=1;whiteSpace=wrap;html=1;" vertex="1" parent="1">
          <mxGeometry x="1100" y="250" width="450" height="610" as="geometry" />
        </mxCell>
        <mxCell id="Ry9hIVVeoLZASk-tj-2A-16" value="&lt;h1&gt;LAN&lt;/h1&gt;" style="text;html=1;strokeColor=none;fillColor=none;spacing=5;spacingTop=-20;whiteSpace=wrap;overflow=hidden;rounded=0;" vertex="1" parent="1">
          <mxGeometry x="1240" y="50" width="190" height="120" as="geometry" />
        </mxCell>
        <mxCell id="Ry9hIVVeoLZASk-tj-2A-17" value="&lt;font style=&quot;font-size: 19px;&quot;&gt;&lt;b&gt;Proxmox claster&lt;/b&gt;&lt;/font&gt;" style="text;html=1;strokeColor=none;fillColor=none;align=center;verticalAlign=middle;whiteSpace=wrap;rounded=0;" vertex="1" parent="1">
          <mxGeometry x="1180" y="210" width="190" height="30" as="geometry" />
        </mxCell>
        <mxCell id="Ry9hIVVeoLZASk-tj-2A-33" value="" style="group" vertex="1" connectable="0" parent="1">
          <mxGeometry x="1140" y="650" width="150" height="173" as="geometry" />
        </mxCell>
        <mxCell id="Ry9hIVVeoLZASk-tj-2A-30" value="" style="rounded=0;whiteSpace=wrap;html=1;" vertex="1" parent="Ry9hIVVeoLZASk-tj-2A-33">
          <mxGeometry y="40" width="150" height="133" as="geometry" />
        </mxCell>
        <mxCell id="Ry9hIVVeoLZASk-tj-2A-26" value="&lt;font style=&quot;font-size: 15px;&quot;&gt;&lt;b&gt;Linux VM&lt;/b&gt;&lt;/font&gt;" style="image;sketch=0;aspect=fixed;html=1;points=[];align=center;fontSize=12;image=img/lib/mscae/VM_Linux.svg;" vertex="1" parent="Ry9hIVVeoLZASk-tj-2A-33">
          <mxGeometry x="30" width="76.09" height="70" as="geometry" />
        </mxCell>
        <mxCell id="Ry9hIVVeoLZASk-tj-2A-31" value="&lt;font style=&quot;font-size: 15px;&quot;&gt;&lt;b&gt;Cloudflared&lt;/b&gt;&lt;/font&gt;" style="rounded=0;whiteSpace=wrap;html=1;" vertex="1" parent="Ry9hIVVeoLZASk-tj-2A-33">
          <mxGeometry x="15" y="100" width="120" height="60" as="geometry" />
        </mxCell>
        <mxCell id="Ry9hIVVeoLZASk-tj-2A-34" value="" style="rounded=0;whiteSpace=wrap;html=1;" vertex="1" parent="1">
          <mxGeometry x="1130" y="360" width="300" height="280" as="geometry" />
        </mxCell>
        <mxCell id="Ry9hIVVeoLZASk-tj-2A-25" value="&lt;font style=&quot;font-size: 15px;&quot;&gt;&lt;b&gt;Windows10 VM&lt;/b&gt;&lt;/font&gt;" style="image;sketch=0;aspect=fixed;html=1;points=[];align=center;fontSize=12;image=img/lib/mscae/VirtualMachineWindows.svg;" vertex="1" parent="1">
          <mxGeometry x="1170" y="310" width="76.09" height="70" as="geometry" />
        </mxCell>
        <mxCell id="Ry9hIVVeoLZASk-tj-2A-43" style="edgeStyle=orthogonalEdgeStyle;rounded=0;orthogonalLoop=1;jettySize=auto;html=1;exitX=1;exitY=0.5;exitDx=0;exitDy=0;entryX=0;entryY=0.5;entryDx=0;entryDy=0;" edge="1" parent="1" source="Ry9hIVVeoLZASk-tj-2A-36" target="Ry9hIVVeoLZASk-tj-2A-42">
          <mxGeometry relative="1" as="geometry" />
        </mxCell>
        <mxCell id="Ry9hIVVeoLZASk-tj-2A-44" value="&lt;font style=&quot;font-size: 15px;&quot;&gt;&lt;b&gt;停止/起動&lt;/b&gt;&lt;/font&gt;" style="edgeLabel;html=1;align=center;verticalAlign=middle;resizable=0;points=[];" vertex="1" connectable="0" parent="Ry9hIVVeoLZASk-tj-2A-43">
          <mxGeometry x="0.1335" y="5" relative="1" as="geometry">
            <mxPoint x="1" as="offset" />
          </mxGeometry>
        </mxCell>
        <mxCell id="Ry9hIVVeoLZASk-tj-2A-55" style="edgeStyle=orthogonalEdgeStyle;rounded=0;orthogonalLoop=1;jettySize=auto;html=1;exitX=1;exitY=0.5;exitDx=0;exitDy=0;entryX=0;entryY=0.25;entryDx=0;entryDy=0;" edge="1" parent="1" source="Ry9hIVVeoLZASk-tj-2A-36" target="Ry9hIVVeoLZASk-tj-2A-53">
          <mxGeometry relative="1" as="geometry" />
        </mxCell>
        <mxCell id="Ry9hIVVeoLZASk-tj-2A-56" style="edgeStyle=orthogonalEdgeStyle;rounded=0;orthogonalLoop=1;jettySize=auto;html=1;exitX=1;exitY=0.5;exitDx=0;exitDy=0;" edge="1" parent="1" source="Ry9hIVVeoLZASk-tj-2A-36" target="Ry9hIVVeoLZASk-tj-2A-53">
          <mxGeometry relative="1" as="geometry" />
        </mxCell>
        <mxCell id="Ry9hIVVeoLZASk-tj-2A-57" style="edgeStyle=orthogonalEdgeStyle;rounded=0;orthogonalLoop=1;jettySize=auto;html=1;exitX=1;exitY=0.5;exitDx=0;exitDy=0;entryX=0;entryY=0.25;entryDx=0;entryDy=0;" edge="1" parent="1" source="Ry9hIVVeoLZASk-tj-2A-36" target="Ry9hIVVeoLZASk-tj-2A-54">
          <mxGeometry relative="1" as="geometry" />
        </mxCell>
        <mxCell id="Ry9hIVVeoLZASk-tj-2A-58" style="edgeStyle=orthogonalEdgeStyle;rounded=0;orthogonalLoop=1;jettySize=auto;html=1;exitX=1;exitY=0.5;exitDx=0;exitDy=0;entryX=0;entryY=0.5;entryDx=0;entryDy=0;" edge="1" parent="1" source="Ry9hIVVeoLZASk-tj-2A-36" target="Ry9hIVVeoLZASk-tj-2A-54">
          <mxGeometry relative="1" as="geometry" />
        </mxCell>
        <mxCell id="Ry9hIVVeoLZASk-tj-2A-59" style="edgeStyle=orthogonalEdgeStyle;rounded=0;orthogonalLoop=1;jettySize=auto;html=1;exitX=1;exitY=0.5;exitDx=0;exitDy=0;entryX=0;entryY=0.75;entryDx=0;entryDy=0;" edge="1" parent="1" source="Ry9hIVVeoLZASk-tj-2A-36" target="Ry9hIVVeoLZASk-tj-2A-54">
          <mxGeometry relative="1" as="geometry" />
        </mxCell>
        <mxCell id="Ry9hIVVeoLZASk-tj-2A-65" style="edgeStyle=orthogonalEdgeStyle;rounded=0;orthogonalLoop=1;jettySize=auto;html=1;exitX=0;exitY=0.75;exitDx=0;exitDy=0;entryX=1;entryY=0.25;entryDx=0;entryDy=0;" edge="1" parent="1" source="Ry9hIVVeoLZASk-tj-2A-36" target="Ry9hIVVeoLZASk-tj-2A-64">
          <mxGeometry relative="1" as="geometry">
            <Array as="points">
              <mxPoint x="830" y="469" />
              <mxPoint x="830" y="390" />
            </Array>
          </mxGeometry>
        </mxCell>
        <mxCell id="Ry9hIVVeoLZASk-tj-2A-66" value="&lt;font style=&quot;font-size: 13px;&quot;&gt;ログイン用認証URL発行&lt;/font&gt;" style="edgeLabel;html=1;align=center;verticalAlign=middle;resizable=0;points=[];" vertex="1" connectable="0" parent="Ry9hIVVeoLZASk-tj-2A-65">
          <mxGeometry x="0.4678" y="-1" relative="1" as="geometry">
            <mxPoint as="offset" />
          </mxGeometry>
        </mxCell>
        <mxCell id="Ry9hIVVeoLZASk-tj-2A-36" value="" style="shape=image;verticalLabelPosition=bottom;labelBackgroundColor=default;verticalAlign=top;aspect=fixed;imageAspect=0;image=data:image/jpeg,/9j/4AAQSkZJRgABAQAAAQABAAD/2wCEAAkGBxEOEA4QDw4RDw4PEQ4PDhAOFBARDg4RFxcXGBYTFhYZHioiGRsoHCEUIzMkJystMDAzGCE2OzYvOjcvMC0BCwsLDw4PHBERGy8hHiQtLS0vMi80Ly8tLy0tLS8vLy0vLzovMC8vMC8vLy8vLy8vLy0vLy8vLS8vLy8vLzEvL//AABEIAOsA1gMBIgACEQEDEQH/xAAcAAEAAgMBAQEAAAAAAAAAAAAAAQIEBQcGAwj/xABKEAACAQMAAwsFCwoGAwAAAAAAAQIDBBEFITEGEjJBUVJhcYGRoQcTFJPRFRYiQlNydJKxwdIXMzRUYoKisrPhIyQ1c9PwY2Tx/8QAGgEBAAMBAQEAAAAAAAAAAAAAAAECBAUDBv/EADYRAAIBAgIFCgUDBQAAAAAAAAABAgMRBCEFEjFhkRQyQVFxgaGxwfATFSLR4TNS8SNCYnKi/9oADAMBAAIRAxEAPwDuIAAAAAAAAB8rivCnFzqTjCEdblNpRXay1SainKTSSTbb2JLazk26PTk72q3lqjFvzVPiS5zXOfhnB60aTqPceVaqqa3nrNI7vKUHvaFKVZ86T83DsysvuR5+73bXk+DKnSXFvIJvvnk822XqW1SMd/KlUjDnShJQ72sG+NCnHov2mCVepLp4GbX0/dz4V1V/dnKC7o4MKpeVZcKrUl86c39rPg2VbPXVS2LwR5aze1viy0pN7XnrKqo1sk11Nohsq2AZMNJV4cGvVj82pUX2MzKG6e9p8G7q/vtVP50zUNlWQ4xe1IlSl1viz19h5Qrmm152FOtHj1eaqd61fwntdA7p7e9+DTlva2MulUwqnS48Ul1duDjLJjNxalFuMotOMotqUWtjTWxnjPDwlsyZ7QxE47cz9BA8fuF3U+mRdGu16TTWVLZ56C+N85asrt5cewOfOLi7M6EZKSugACpYAAAAAAAAAAAAAAAAAA0W7S4dOxrtbZKFPslJKXhk5Qzp3lCf+Sf+5S+05g2dHCczvOdi39fce+3A6Ep+bV1UipTlKSo77WoRi8OS/abT18i6z2slnU1lPU09h5fyfX8alqqOV5yi5qUeNxlJyjLq1tdh6ox123Ud/aNlCypq3tnL93mhYWtSnVpRUadbfZgtUadRYzjkTT2cWGeVbPb+U3SMZSo28WnKnvqtTHxW1iK68b59x4Zs30G3TVzBXSVRpBsq2GyjPU8g2VZLKsAMhsNlWwDI0bfytq1KvDhUpqaXOXxo9TWV2ne6VRTjGUXmMkpRfKmso/PLZ3bcy82Vk3t9Gt/6cTHi1kmbcI9qNoADEbAAAAAAAAAAAAAAAAAADzPlD/Qn/uUvvOXNnU93lCdS0cacJ1Jecpve04ynLGvXhHOXoa6/VLj1VX2HQwrXw+85+KTdTJdCMa1ualGanTnKE47JQeH1dK6Db1d2V9KO98/jicowpqT7cauzBr3oa6/VLj1VX2FXoa6/VLj1VX2Hs1B5ux4x+IsldGFObk25Nyk23Jybcm3tbb2so2Z70Jd/qlx6qr7Cr0Jd/qlx6qr+EtrLrK6kup8DXtkMzp6Hukm3aV0km23SqpJLa28GvbJTT2Bprag2Q2S2VbBAbKNhsq2CQ2d23L/oNl9Gt/5InB2zvG5b9Bsfo1v/AE4mTF81dprwu1m1ABhNoAAAAAAAAAANLuh0/TsoJy+HVkn5umnhvpb4okxi5OyIlJRV2beclFNyaSWttvCS6Waa53V2VN4dxGT/APEpVF3xTXic30tpetdy31Wo2s5jTjqpQ6o/e9Zr2bYYRbZPgYpYx/2ridP9/Fnzqnq5Ee/mz51X1bOXtlWy/JKe8pyupuOo+/uy51T1bI9/dlzqnq5HLmyrY5JT3jldTcdT9/llzqvq2R7/AGy51X1bOVtlWxyWnvHKqm46t7/bLnVfVsj3/wBjzqvq5HKGyrHJae8nlVTcdQv93VlUo1YRlUzOnUhHNNpZcWkcuDZVs9KdKNPmnlUqyntDZRslsq2ehQhsq2S2VbBJDZ3ncu8WFk//AFbf+nE4Kd53M/6fZ/RaH9NGPGc1M1YTnMzvTYcr7h6bDlfca4Hyi0lX3cPydf4MTY+mQ5fBn2hNPY0+o1AjNp5Tw+gvDSdRP60mt2XqyHQXQzdAxrSvv1r2raZJ2KdSNSKlF3TM7TTswAC5BiaRvI29KpVnwacXJ8rfFFdLeF2nINJX07irOrVeZzeeiK4oroR7Tyk3rjCjRT4cpVZ9UdUU+1t/ungWdDCwtHW6X5HPxU7y1eheYZVslsq2ajKQ2VbJbIbAIbKtktlWyCQ2UYZVgBkMNkNgBso2GyrYJDZVsNlWwSGyrDBAB3ncz/p9n9Fof00cGO87nFvbCzT1NWtvno/w0Y8ZzOPka8JzmUIyCMnwnQdwEZGSCCS9GrvJKXJ48puU861sZocm2sKm+gujK9h1NFVvqlTfTmvX04HhXjkpGUADuGU5bu8ud/e1I8VKFOmu7fvxl4HnGzO05W85c3M+WtVx1KTS8MGvbOvTVoJbjkVHebe8NlWw2Q2XKBsq2GyrZBIbKNktlWAGVbDDYBDZVslso2AQ2VbJbKtgsGyrYbIIAACXe9SS2t8gBk6NsZXNalQhw6s401+yntl1JZfYd8rpU6W9jqioxhFdGzHceR8nu5OVqvSbiOLicd7TpvbRg9rfJN+C1cbR6W+r76WFsj4nE0ri1Cm7PrS7X09yOng6LWb9pGNkjIyQfInVGSMjJUqSSZ+ip65x6E19/wBxrjK0dLFRdOV4Z+40YKeriIdtuOXqVqq8GbkAH1Zzzhdae+lKXOlJ97yfNsvWjvZSjzXJdzwfNs7RxQ2VbDZVsgkNlGyWyjADZDJSbaSTbbSSSbbb2JLjZ0fcruGhTUat5FVKrw40XrhT+fz5dGxdO0pUqKCuz0p03N2R4XRuhbm610KE6kefqjD68sLxN7T8nl7JZcqEOic55/hizp8riEPg8mpJbF0Hxd++KPezk1dLQhK113Js3wwKtnd+Bzd+Te9+Vtfr1vwEfk2vPlbX69b8B0n06XNXiPTpc37Ty+dU+vwZfkK6vE5q/Jre/K2v1634Cr8ml78ra/XrfgOmenS5q8R6dLmrxHzqn1+DHIV1eJzP8md78ra+srf8ZH5M735W19ZW/wCM6Z6fLmrxHp8uZ9pHzqn1/wDLJ5CurxOdW3kwuG/8W5owXLSVSo+5qJ7DQG461sWqii6taOtVa2G4fNWyPXt6TZyv5cSS7zGq1pS4Um/+8hnraai1aN34L7+B6QwSTvb1Mq6vM5jDtfsMEZGTgV6860taf8dhuhFRVkRkgEHgXGSARkrckH2s3ipDrR8Mn0svzkPnIvRf9SH+y8xJZM9CAD7M5ZxPTtLzd1cw5tarjq3za8MGA2ei3f23m76o+KrClVXdvX4xZ5xs68HeKe45FRWk1vZDZVslsoyxUMqwyVFyajFZlJpRXK3qSAPe+TXQKeb2rHOHKFunsytUqnfmK6pdB7i7r/Fi+tkWVtG1oU6ceDRhGC6WljL63r7TDPl9K4uXNi9vl+fudzC0VGPZ5gAHBNgAIyASQQRkrcknJGSMkZK3JsSVyMkFWyQRkEFSwIBGSpIyRkZIyVuSMmRo5Zqw6M+CMXJsdCwzKcuT7X/8NGChr4imt6fDP0KVXqwbNwAD7E5h4Lyo2WY29dLgudGX73wo/ZLvOfNnbdOaOV3b1aD1b+PwZc2a1xl2NI4ncUpU5ThOLjOEnCcXtjJPDR0MLO8NXq8jn4qFp63WfNshhlWaTMGzL0Is3NquJ3FBP68TDbMzQb/zVp9It/54kS2PsLQ5yO4X3AfYa42N/wADuNcfE6S/W7l5s+ho80AEGA9RkjIyVyVJsTkjJBGStyxJGSCMlbkggEFWyUSRkjJGSpIyRkZIyUuWGSMkkFWySDe6Mpbyms7ZfCfb/bBp7Shv5xjxPW+g9KdzQ1C8pVn0ZL19PEyYqeSiAAfQGIHi9225R3Wbi3S9ISSnDUlWS2YfFJbOk9oC0JuDuis4Kasz8/VYShKUZxcJxeJRknGUXyNPYUbO46U0Jb3f5+hCo0sKeuNRLkU44aXaaGr5O7OTypV4LkjODX8UWzbHFQazyMUsLJbGcqbMvQT/AM1Z/SLf+eJ0j8nFp8rc/Xp/gL23k+tadSnUjUruVOpCrFSlT3rlGSks/A2ZRLxNNpoiOHmnfI9Pf8DuNbk2V/wGazJ8hpL9fuXqdujzQRkZIOcewyQRkgq2STkgmCy4rlNn7nw/a7/7HvQwlSum4Wy3lJ1Iw2mqINt7mw/a7/7Ee5sOWff/AGPd6LxG7j+COUQ9o1OSMm39zYcs+/8AsPcyHLPvXsK/KsRu4/gnlFP2jT5K5Nz7lw5Zd69g9yqfLPvXsIeicTu4jlNP2jS5IN17lU+WXevYPcmnyy717CPlGJ/x4/gtymmaUmEXJpJZb2JbWbn3Lp/tPra+5GTRt4wXwYpfeXpaGrN/XJJbs35W97CssVG2WZ8tHWnm46+E+EZgB9DSpRpQUIbEYZScndgAHoQAAAAAAAAAYukOA+tGrybTSH5t9hqsnz2lP1+5epsoc0ZIyMlTmnsSQQCtywTxs2o+vpNT5R958clckxqTjzW12Noaqe0+/pdT5R95HpdT5R958MhJt4Sbb2Ja2x8er+58WNSPUj7emVOe+8j0yp8o+8mVjVSzvO7DfcYzJnPEQ57mu1yRMYwey3gff0yp8o+83ts24QbeW4pt8rwebPSWv5un8yH2I6eh6k51J60m8ltbfTvZnxUUoqy6T7AA+gMQAAAAAAAAAAAAAAAAABi6R/NvsNQbu5p7+Eo8bWo0bPn9LRaqqXQ15P8AKNmHd42GSARk5NzQCMjJGSrZYZIyRkjJVsknJt9EUkoKfxp518mOI0xttEV1vfNvhJtrpT1+06GinBYla3U7duXpc8cSnqZG0NPpmgk4zWpvVLpfEbg0ml7lTahF53uW2tnUdnSrgsNJS6dnb/G3dcy4dP4isYB6S24FP5kPsR52lTc5Ritsv+5PTRjhJLYlhGDQkHec+jJd+fke2LlkkWAB9AYgAAAAAAAAAAAAAAAAAAa6+s99mUVr41ymxB416EK8NSezxT6173PItCTi7o82yuTe3FpCptWvlNfV0XNcF77wPna+jK9N/StZbtvDbwubYV4PbkYOSMl6tGUeFFrpecd58snNleLtJWe80LPYWyQCClyQAfWnbVJcGDfTs8WTCLqO0Vfcs/BBu2byKyuJtYcpNcjeopCLk0kst7EtpsaOiZfHkkuRa/E2VC2jBfBjjl42zq0dF4is71Xqrfm+H32bzPLEQjlHMx9H2Xm1mWub7kZ4B9FRowowUIKyXviYZScndgAHqVAAAAAAAAAAAAAAAAAAAAAAAAB8nSi9sYvsR9QQ1dWYTtsMf0KnzEPQ6a+Iu3WZAPP4FL9i4L7FteXWz5wpKOxJdSPoAeqyVioAAAAAAAAAAAAAAAAAAAAAAAAAAABDKMAvkrvz5sqwD6+cHnD4sgA+3nB5w+AAMjzg84fAsgD7qROTHRdAH2B80XQBIAAAAAAAAAAAP//Z;" vertex="1" parent="1">
          <mxGeometry x="1155" y="414" width="66.48" height="73" as="geometry" />
        </mxCell>
        <mxCell id="Ry9hIVVeoLZASk-tj-2A-32" style="edgeStyle=orthogonalEdgeStyle;rounded=0;orthogonalLoop=1;jettySize=auto;html=1;exitX=0;exitY=0.25;exitDx=0;exitDy=0;entryX=0;entryY=0.5;entryDx=0;entryDy=0;" edge="1" parent="1" source="Ry9hIVVeoLZASk-tj-2A-31" target="Ry9hIVVeoLZASk-tj-2A-36">
          <mxGeometry relative="1" as="geometry">
            <Array as="points">
              <mxPoint x="1070" y="765" />
              <mxPoint x="1070" y="450" />
            </Array>
          </mxGeometry>
        </mxCell>
        <mxCell id="Ry9hIVVeoLZASk-tj-2A-38" style="edgeStyle=orthogonalEdgeStyle;rounded=0;orthogonalLoop=1;jettySize=auto;html=1;exitX=1;exitY=0.5;exitDx=0;exitDy=0;" edge="1" parent="1" source="Ry9hIVVeoLZASk-tj-2A-37" target="Ry9hIVVeoLZASk-tj-2A-8">
          <mxGeometry relative="1" as="geometry" />
        </mxCell>
        <mxCell id="Ry9hIVVeoLZASk-tj-2A-40" value="&lt;b style=&quot;&quot;&gt;&lt;font style=&quot;font-size: 17px;&quot;&gt;http&lt;/font&gt;&lt;/b&gt;" style="edgeLabel;html=1;align=center;verticalAlign=middle;resizable=0;points=[];" vertex="1" connectable="0" parent="Ry9hIVVeoLZASk-tj-2A-38">
          <mxGeometry x="0.1339" y="3" relative="1" as="geometry">
            <mxPoint as="offset" />
          </mxGeometry>
        </mxCell>
        <mxCell id="Ry9hIVVeoLZASk-tj-2A-71" style="edgeStyle=orthogonalEdgeStyle;rounded=0;orthogonalLoop=1;jettySize=auto;html=1;exitX=1;exitY=0.5;exitDx=0;exitDy=0;entryX=0;entryY=0.5;entryDx=0;entryDy=0;" edge="1" parent="1" source="Ry9hIVVeoLZASk-tj-2A-37" target="Ry9hIVVeoLZASk-tj-2A-64">
          <mxGeometry relative="1" as="geometry" />
        </mxCell>
        <mxCell id="Ry9hIVVeoLZASk-tj-2A-37" value="" style="shape=image;verticalLabelPosition=bottom;labelBackgroundColor=default;verticalAlign=top;aspect=fixed;imageAspect=0;image=data:image/jpeg,/9j/4AAQSkZJRgABAQAAAQABAAD/2wCEAAkGBxAQEBITERMWEBITExASEhEXFRITFRYRFREWFhUWFRgYHSggGBslGxYWITIhJSkrLi4uFx8zODMsNygtLisBCgoKDg0OGxAQGy0lICYwLS0vLS0tLy0tMS8tLS0tLS4tLS0rLS0tLS8tLS0tLS0tLS0tLTUtLTUtLS0tNS0uL//AABEIAOEA4QMBIgACEQEDEQH/xAAcAAEAAgMBAQEAAAAAAAAAAAAABgcDBAUCAQj/xAA+EAACAQEEBgYHCAEEAwAAAAAAAQIDBAURIQYSMUFRYRMicYGRwQcyQlKhsdEUI1NicpKT8ENzgrLhMzRj/8QAGwEBAAIDAQEAAAAAAAAAAAAAAAMEAgUGAQf/xAAxEQACAQIDBAkFAQEBAQAAAAAAAQIDBBEhMQVBUWESEyJxgZGhwfAUMrHR4VIjcgb/2gAMAwEAAhEDEQA/ALxAAAAAAAAAAAAAAAAAAAAAAAAAAAAAAAAAAAAAAAAAAAAAAAAAAAAAAAAAAAABxL00nslnxU6qlJexDryx4PdF9rRGrd6Rln0NHLdKo/nGOzxIpVoRybLdGxuKqxjB4cXl+cMfAsAFU19PLZJ5akFwUcfizSnpbbn/AJpLswRF9XDgy5HY1d6uK8X+i4wU3HSy3L/PJ9uBuUdObbHa4yXBxXzH1cODEti11o4+v6LYBXdk9I0sulopre4SccF2PHF96JHdul1irtJVOjk/YqdR9il6rfJMljXpy0ZUq7Puaebhlywf4JCDymnzPRKUwAAAAAAAAAAAAAAAAAAAAAAAADFWqxhFyk1GKTbk3gklvbK40o02lVbp2VuFPNSq7Jy/Twj8Xy3x1KsaazLNraVLiWENN73L+8iVX9pZZ7NjFPpanuR3dr3Fe3zpTarU2nPo4fhwbiu97WcWUj4a+pWlPuOmtdnUaGeGL4v2W788z5gfQCE2AAAPAAAAfD6ADqXRpDabK10dR6v4cutDDkt3cWBcGmlC0YQqfc1Hlm+q3yZVYJadaUNNCnc2FG4zksHxWvjxL/BVGjOmFWzNQq41qOzjOHOD4flfdhvs2xWynWhGpTkpwksVJf3J8jYUqsammpzF3ZVLZ9rNPR7v4+RtAAlKgAAAAAAAAAAAAAAAMVatGEXKTUYxTcpPJJLa2ZSq/SHpM61R2Wk/uoP72Sfr1Ftj+lfF9mcdWooRxLNpayuKnQWS3vgv3wMOlulMrXJwptxoJ5btZre+XIjRigzKjVyk5PFnYUaUKUFCCwSAAMSUAAAAAAAAAAAAAAAHb0Y0hqWOpvlSk+tDzXM4gMoycXijCpTjUi4TWKZethtkK1ONSnJShJYpr5dptFR6F6QyslbVm8aFVpSXuy2Ka+TXDPdnbUZYrFZp7GbOjVVSOO85C9tHbVOjqno/m9fp7z0ACUpgAAAAAAAAAAAEb02vv7LZ2ov72pjGHLjLuKVeUs9+afGL395JtMb2+1WuUk8YQbhT7FtfeyPWqjrJ4etHNPikniv7vRUrLp+BW2btnqb7oyf/ADl2e545Puxy7mnuPsWZ4s0qNXE2YMotH0SLxRmATB4ZgA6lzXDaLW/u46sN9WWUF2cX2HqTbwRhUqRpx6U3gjlnwse7tA7PDOtOdWXBPUh4LN97O1S0dsUVhGzUu+Kl8ZYllWs97SNXU21Ri+wm/T55FPYoFyVLgscttmpfxxXyRz7TodY5epBUnySa8GeStZpdnB+nsYR23TesGvIqsE1t+jPQ5unCUfeUY/FYZGmrvpfhw/ZH6GuqXDpy6M4tMtx2hCSxisfEiwJYrupfhw/ZH6HtXbS/Dh/HH6Ef10f8sy+ujw9SIAmcbrpfhw/jj9DJG6aX4UP44fQx+vj/AJY+tX+fUhOJZvo9vvpqTozeM6S6vOnu8DmK6KP4UP44fQ27us1OhVjUhCEWtrUYp4PdkiSjtSEJptZb/nqVLypG4pODWeqz3k6B5jLFJrfmejpDmQAAAAAAAAAcLTG8vs1jqzTwnJKnDjrTeGK7FjL/AGndK79Kts/9eint6SpJc8owf/PxMZvBFa7q9VRlJa4Zd7K/SABAcphuNS0w1Zay2PPsbbyMlKeJlrQ1k13r9WGCNOD7mvmVqsMGfS//AJ3af1Vv0ZPtwwT5rc/HfzxOhFns1qUzt6M3U7XaIw9hdeo+EVu7Xs8SBJt4I6OVSMIOctFmdbRHRd2lqrWTjQTyjsdR+UPn87Br16NmpYycaVOKwS2LkkltYtFalZqLk8IU6cckuCySS4lZXzetS1VNeeUV6lPdBeb4s6LZ2zus5JavjyX73c2zh9p7TlUl0peC4fPXktO/eem822rPBRj78s5PmlsRwq9+2ue2tPuer8jnA6WnaUaa7MV+X5s0E69SWr9vwb9K+rVHZWl3vH5nYu/TWtBpVoqrHe11ZfRkYB7UtaNTKUV5YPzWAjWqR0k/neW3dt5UbTDWpS1lslF7U+Ekcq9rnw69JZe1DhzXLkQG77dUs9RVKT1ZLat0o+7Jb0WjdF5QtVJVI5Y5SjvjLemcxtbZMejg847nvi/nnobeyvm5c963NEdhZeLMkaCR0LbZtSeXqvNeaMGB8+rU50puEtV89VmdFCopLpIxqB6UT0fSEyxPOqNU9AHmJ3Lnra1PDfF4Ps2r6dx0Tg3LPCbXvL5bPgd47DZlXrLaLeqy8tPHDDE1NxHo1H5gAF8gAAAAAABUnpIrOVukt0IU4rvWL+LLbKW00njb7Rykl3KKI6mhrNqywoJcWvdnEABEc8fTVtVP2lyUucs3j/eRsiSTWDzTWD7DGUeksC/sy+lZXEaq00kuMXr4rVc0alNlqejWw6lmdZrrVZvD/TjksOTeLKqlFxk09z28Vjky8NFqKhY7NFfgwf7lrP5mFvHttvcfRdp107aKi8VJrxWq9n4Eb9IF4NzhQT6sVrT5yfq49iIidHSKtr2us/zteGRzjvLSmqdGMeXq82cFXn0qjfzLIAAsEQAAAJDoTeDpWlQb6lZarX51nF/NEeMllqalSEvdnF+DRFXpKpTlB7189TOnPoTUkWxedPGm3vWa8/gcckElrRfNfNEehsXYfKtuU8KkJ8U15P8Ap19nLsuPD3PQANIXQAADYu+WFWHh45ElIrZ3hOL5+ZKjpNhv/lNc/b+GuvV2kwADdlMAAAAAAFK6Zxwt9o/Wn4xRdRUXpFpatum8MpRhJc+qk/iiOpoazaqxop8GvcjAAIjngfT4ADFaYYxx3pP9qxxLr0aqqdjssln9zS+EUvIplln+jq169j6PfSnJJcIS60PDFo9prtPmdLsy+dS3+mnrB4x/8vVeDw8HyIjpBT1bVXX/ANJPxz8zQJPp9YXCtGql1aiwb/PH6ojB29rUVSjGS4LzWT/BRrR6NSS5/wBAAJyIAAAHuhDWnCPGUV4tHg7eh1hda1ReHVpdeXbsivH5EdWoqcHN7k2Zwh05KPEsnYuxfJEehsR27fU1acuL6q7zinyrbc104Q4Jvzf8Ovs1lJ/PmZ9ABoy6AAAe6CxlH+7yVEZsMcasFzXwJMdJsNf85vn7f0196+0gADdlIAAAAAAFb+lay4Ts9XjGpBvcnFqUe960vAsgjund3dPYaiSxnTwqw7Y46yXNwc13mE/tK15S6yhKK7/FZlOgAhOUAAAB3dDr4+y2lOTwp1MIT5Z5S7mcI+nqJKVSVOanHVF2XpYIWmjKnLZJYxkt0vZkirLwsNSz1HTqLCS2PdKO6UeKJBoVpWoqNntDwWylVe78rfyZMb1uqjaoatRY74zXrRfGLNtYX/UvB5xfmu79bzoJKF3BVKbz+ZP2ZUwJBeeiFppNunhXhuaylhzi/I4dWzVIetCUe2LR0dKvTqrGEk/nmUJ05wyksDGD3Tozl6sZS7ItnYu7RW1VmsY9FH3peUVmz2pVhTWM2l3s8hCU/tWJyLPQnUnGEIuU5PCMV/clzLO0euhWSiobZy61SXGXBckLkuKjZV1FrTfrVH6z5LguRq3lfSnVdnoPWaWNeotkI+6nvm/gjm9p7SjOLwygs3xfzRLibS1turacvueS+cePIz3hX15YLZH4mqfD6fOLivKvUdSW/wBFuR01OChFRAAITMAAA3rmp41cfdTfe8vr4HfOZclLCDlvl8ls+OJ0zr9l0urto8+156emBqbmXSqPlkAAbAgAAAAAAB5axWD3noAFH6S3U7JaalLDCOONP9Es/hs7jllrekG5PtFDpYLGpRxfNw3rzKpK7WDOWvbfqarS0ea+cgADwqAAAAktwaX17MlCf31JbIt5xX5X5MjQPU8CSlVnSl0oPBluXdpZY62H3nRy92WMX3PYzswqQnmpRnzTjIosLFbG12Noz6zibOG15pdqKfc8P2XpKUI5txjzbjE5N46UWKhjrVlKXuwxm/hkVDJt7W33swDp8DKW1pP7YJd7x/RLr/05rV04UE6MHljtnLHLBYbMeR3dH7t+zUFF/wDkl1qj5vdjy2eJF9DLr6Wr001jCk+rzn/1tJ0aDa91i1RXe/Ze/kbrY1Gc07mrq8o8lva7/wAAAGkN8AAAD1SpuUlFbW8DydW5rN/kfZHzZZtLZ3FVU92/u3/oiq1Orj0jqUoKKSWxLIyAHapYGnAAPQAAAAAAAAAfCo9OdHnZa3SQX3FV5fkntcHyebXet2dumrbbHTrU5U6kVKE1g0/n278TGUcStdW0a9PovXc+DKGPh2tJ9HaliqYPGVKT+7qeUuZxiHA5epTlTk4yWDR8AB4YAAAAAACWw80aMqk4wgsZTajFc2Jkt0IuvJ2iS24xpdntS8iK4rqhTc34d+4u2No7msqa038lv/XiSK7rFGhShTjsis3xlvfibQBx8pOTcpas+hRiopRjogADwyABks1CVSWrHve5IyhCU5KMVi2eNpLFnuxWZ1J4eys5PguHayRwikklklkkY7NZ404qMe972+LM519hZq2p4P7nq/ZckamvV6yXIAAvEIAAAAAAAAAAAAAABq2+xU69OVOpFThJYNPy4PmVRpPolWsjco41rO8cKiXWhyqJf8lk+W+4TzJJrB5p5NcjGUUytc2sK6wlrufzVcj8/Hws7SHQKlVxnZmqM9up7DfkV/el017LLVr03DhLbF9kthDJYanPXFnVo/csuK0/nzM0QfT4eFUAHyTANm7LDK0Vo01lj6z92K2ssylSjCMYxWEYpRiuCWw4miN29FS6SSwnVwfNQ9leZ3jm9p3PW1OgtI/nedzsay6ih0pLtSzfJbl7vvAANabgA+04uTwinJ8F58DqWW6d9T9q82Wbazq3D7Cy4vTz3+GZFUrRp/caFksk6ryyjvm9i7OLJBZbPGnHCPe97fFmSEUlglglsR7Oos7CnbLFZy3v2XBGtrV5VO4AAvEIAAAAAAAAAAAAAAAAAAAAAMValGacZxUovamk18TKACIXroDY6uLpa1nl+XrQx5wlkl+lxIxbPR5a4Y9HKFZbsH0cn/tlil+4tYGHVxKlWxoVNY+WRSNo0Yt0HhKz1O2KjJeMTJctxValdKrTlCEM59WSxSeUV2suoGE6TcWk8OZBT2XRhUU228Hjg8P0RJRb2J9yZkjZqj2Ql4NLxZKQapbDpb5v0/pv3ey4Ij1O660tqjDteL8I7fFG5QueC9dub4eqvBZ+LZ1QXKWzLann0ce/P009CGVzUlvw7jHSpRisIpRXBLAyAF8gAAAAAAAAAAAAAAAAAAAAAAAAAAAAAAAAAAAAAAAAAAAAAAAAAAAAAAAAAAAAAAAAAAAAAAAAAAAAAAAAAAAAAAAAAAAAAAAAAAAAAAAAAP/Z;" vertex="1" parent="1">
          <mxGeometry x="290" y="100" width="120" height="120" as="geometry" />
        </mxCell>
        <mxCell id="Ry9hIVVeoLZASk-tj-2A-13" style="edgeStyle=orthogonalEdgeStyle;rounded=0;orthogonalLoop=1;jettySize=auto;html=1;exitX=1;exitY=0.5;exitDx=0;exitDy=0;entryX=0;entryY=0.75;entryDx=0;entryDy=0;" edge="1" parent="1" source="Ry9hIVVeoLZASk-tj-2A-8" target="Ry9hIVVeoLZASk-tj-2A-31">
          <mxGeometry relative="1" as="geometry">
            <mxPoint x="1002" y="160" as="targetPoint" />
            <Array as="points">
              <mxPoint x="890" y="157" />
              <mxPoint x="890" y="795" />
            </Array>
          </mxGeometry>
        </mxCell>
        <mxCell id="Ry9hIVVeoLZASk-tj-2A-14" value="cloudflare tunnell" style="edgeLabel;html=1;align=center;verticalAlign=middle;resizable=0;points=[];fontSize=21;" vertex="1" connectable="0" parent="Ry9hIVVeoLZASk-tj-2A-13">
          <mxGeometry x="0.3127" y="-3" relative="1" as="geometry">
            <mxPoint x="-8" y="-5" as="offset" />
          </mxGeometry>
        </mxCell>
        <mxCell id="Ry9hIVVeoLZASk-tj-2A-11" value="" style="image;aspect=fixed;perimeter=ellipsePerimeter;html=1;align=center;shadow=0;dashed=0;spacingTop=3;image=img/lib/active_directory/tunnel.svg;rotation=90;" vertex="1" parent="1">
          <mxGeometry x="740" y="550" width="300" height="60" as="geometry" />
        </mxCell>
        <mxCell id="Ry9hIVVeoLZASk-tj-2A-62" style="edgeStyle=orthogonalEdgeStyle;rounded=0;orthogonalLoop=1;jettySize=auto;html=1;exitX=1;exitY=0.5;exitDx=0;exitDy=0;entryX=0;entryY=0.25;entryDx=0;entryDy=0;strokeWidth=2;" edge="1" parent="1" source="Ry9hIVVeoLZASk-tj-2A-41" target="Ry9hIVVeoLZASk-tj-2A-54">
          <mxGeometry relative="1" as="geometry">
            <Array as="points">
              <mxPoint x="840" y="630" />
              <mxPoint x="840" y="560" />
            </Array>
          </mxGeometry>
        </mxCell>
        <mxCell id="Ry9hIVVeoLZASk-tj-2A-63" value="&lt;font style=&quot;font-size: 16px;&quot;&gt;接続&lt;/font&gt;" style="edgeLabel;html=1;align=center;verticalAlign=middle;resizable=0;points=[];" vertex="1" connectable="0" parent="Ry9hIVVeoLZASk-tj-2A-62">
          <mxGeometry x="-0.569" y="-3" relative="1" as="geometry">
            <mxPoint x="-1" as="offset" />
          </mxGeometry>
        </mxCell>
        <mxCell id="Ry9hIVVeoLZASk-tj-2A-41" value="" style="shape=image;verticalLabelPosition=bottom;labelBackgroundColor=default;verticalAlign=top;aspect=fixed;imageAspect=0;image=data:image/jpeg,/9j/4AAQSkZJRgABAQAAAQABAAD/2wCEAAkGBxITExYUFBQWFxYXGRwbGBYZGRkbHhkgHxYfGSAhIBohHykjIR8mHBkbIzIiJiouLy8vHiA3OjUuOSkuLywBCgoKBQUFDgUFDiwaFBosLCwsLCwsLCwsLCwsLCwsLCwsLCwsLCwsLCwsLCwsLCwsLCwsLCwsLCwsLCwsLCwsLP/AABEIAOEA4QMBIgACEQEDEQH/xAAcAAEAAwEBAQEBAAAAAAAAAAAABgcIBQQDAQL/xABMEAACAQMBBQQFCQYCCAQHAAABAgMABBEFBgcSITETQVFhInGBkaEIFDJCUnKSscEjM2KCotGywhUXNENTVJTSFiRj4SUmRHSD8PH/xAAUAQEAAAAAAAAAAAAAAAAAAAAA/8QAFBEBAAAAAAAAAAAAAAAAAAAAAP/aAAwDAQACEQMRAD8Ao2lKUClKUClKUClK6eiaFcXcgjt4nkb+Ech626AeZoOZX1ijZiFUEk9ABkn2Vd2y24ocnvpv/wAMX5GQ/oPbVraFsvZ2a4t4I4/FgMsfWx5n30GZ9F3Z6pc4KWzIp+tLiMe48/cKmenbhLhsGa5iTxCKz/E4q/6UFQ224WzH7y4nf7oRf0NdJNyOlDr259cn9lqzKUFaPuS0o9BOPVJ/cVz7vcNYn93PcJ6+Bh/hB+NW3SgoXUdwUoyYbtG8A6FfiCah2s7qNVt+Zg7VR9aFg/8ATyb4VqulBiO5t3jYq6MjDqrAqR7DXwraGsaFbXS8FxDHKP4lBI9R6j2VV21O4uF8vZSmJv8AhSekh9TfSHtzQUBSu5tJsrd2L8FxCyeD9Ub1OOR9XWuHQKUpQKUpQKUpQKUpQKVbm7SbTtSUWV/CnbgfsZh6DyAfVLLjLDuz1Hqrr6/uGHNrS49Ucw+HGo/SgoylSvX93upWmTJbuVH14/TX3rzHtAqKmg/K/tEJIAGSeg8a9OnafLPIsUSM8jHCqoyT/wC3nWjN2u62KxCzXAWS56g9Vi8l8W/i91BBNgNzUs/DNe8UUR5iEcpHHn9gfH1VeujaPBaxiKCJY0Hco6+ZPUnzNdGlApSlApSlApSlApSlApSlApSlB5b+ximQxyosiMMFWAIPsqldvdyuAZtPyRzJt2PP+Rj/AIT76vSlBiK4gaNijqVZThlYEEHwIr41qveDu6t9SQuAI7gD0ZQOvk47x8RWadoNDns5mhuEKOvuYeKnvB8aDlUpUk0LYjULvHYW0hU/XYcC+vibA91BG6Vdeg7hZDhru4C+KQjJ/Gwx8KbwYdM0aLsLWFGvJB+8k/aNEp+tz5Bj3YHnQUtwnwpX1+dyfbf8RpQflvO0bK6EqykFWHIgg5BBrUG6rbpdSg4ZCBcxACRftjuceR7x3H2Vlmups9rU1nOk8LcLoc+RHepHeCOVBs+o3r2w+nXeTNbRlj9dRwP+JcH31/exe1MOo26zxEA9JEzzjbvB/Q94qQ0FNajuTMT9rp95JE46B8gjyEi4I9oNeX/xDtJpn+0wfOoh1cDi/rTmPWy1d9KCr9A312EuFnWS3foeIcS5+8OfvAqwtM1aC4XjhljkXxRg35VzNd2MsLsHt7eNifrgcLD+ZcGq+1Lcn2bdrYXckLjorE+7jXBHtBoLipVIjWNptN/fw/O4h9YDjOPvJhh62Brt6FvusZDw3CSW79Dkca59Y5j2igtOlVHtBvriD9lYQPcyE4DEEKT/AAqBxN8K5JtNqdR5s/zWM/VyIuXqGX99Bdk9wiDLuqjxYgfnXLn2rsE+ld249cqf3qmNT3YW8JDalqyhj9Xq3s4mJPurxrpWysfJ7u5kPiFbB90dBecG1lg/0bu3PqlT+9dOC6jcZR1YeKsD+VZ9bS9lJOS3VxGfEh8f1R17LDdlZTEnTdXHGPq5HF/Syt8KC/aVRsthtRpoLJL86iX6ue15fdYB/wAJrpbOb74mbs76BoHBwXXJUH+JD6S/GguClVzr2+TTIOUbPcN3CMYX8bYHuzUd/wDF+0Go8rOzFvGf9645+sM+B7lNBcN1dRxqXkdUUdWYgAe01BNe3v6Zb5CSGd/swjI/GcL7s1H7Xc9PcsJNSv5JW68CEnH8zfooqd6DsFptpgw26cQ/3jjjb8TZx7MUFf8A/jfXdQ5WNl2EZ5CVxnl48TAL7ga/qDdBdXTiXU755G+wmWx3kBm5AeQWrlpQRTQd3um2mDFboWH+8k9Nve3T2VKQMdK/quVtHrkNlA88zBUUdO9j3KB3k0HI3hbZRabbGQ4aV8iKP7TeJ/hHUn+9ZU1LUJJ5XmlYu8h4mY95/t3V09s9p5tQuGnlPXkidyL3KP1Pea4FApSlApSuloGlSXU8VvGMvK4UeQ7z6gMn2UHU2fuNQsYxf2/GkRfs+PqjEc+Fh0I9fnVi6Lv5lAAurZW/jiJXP8rZHxq2otlrYWQsTGDAI+Ajx/iz9rPpZ8ap/SgNEvWsb9ElsZzmKSRFYLk44uY5eDDu5H1hP9H3v6VNgNK0LHulUgfiGV+NTKw1SCZQ0MscinoUZW/I1FL/AHW6ROM/NlTPMNEzJ18ADj4VGbvcbCpLWt5PC3dnDY9q8JoLepVRQ7O7TWn7m8iuUH1ZTkn8Qz/VXW0XbTUopBHqWnSRqeXbwgyKPNlUthfMHl4UFj1wtc2RsbsH5xbxuT9bGG/GMGu2jAjI6Gv6oKc1rcZFntLK4kicc1V+YB8nGGHr51x9G261HSLhbXVA0kR6SH0mUdOJH+uviDz/ACq+6ie8jZRNQs3jwO1QF4W7wwHTPg3Q+ugz1vU0gwXzuJDLHcATRSk8XEr/AMXfg5HqxUNrtapqzSW8MEmeO3aRVz1CMQeE/dYHHrri0CpDsLosl3ewwoxTLcTSKcFFX0mYHuOByPiRUersaHrDW6T8BIkli7IMO5WYF/aVGPbQWxtRvFvLy4FhpPEQPRMw5s+ORIY8lQfaPX8/To+5AyN2uoXTu7HLrHzJPnI2SfYKlG5vZJbKzWV1/b3ADuT1VTzVfYOZ8zVhUEb0HYfT7THY20YYfXYcbfibJqSUpQKVAdotsr3tDDp1hJcFeTTOCkWfBSccWPHOPXXBl0fai7/eXMNqh6rGRke1QT/VQWneXscQ4pJEQeLMFHxqHavvZ0mDl847VvCJS/8AV9H41GbfcgrkNd308zd+OX9TFjUl03dJpMPP5v2h8ZHZvhkD4UEI1nf0TkWtr3H05W6efAv96rnXNY1LVO0nlLyRwgMwUYjiBOPo/rzNTnby/S8uV0nSoYlTixM8aKoYg8wWA+gnUnvPxtrZbY+3s7T5oqhlZSJmI5ylhhifZyA7higyDSpHt7s41heS25zwg8UZ+0jc1P5j1g1HKBSlKBV4/J22b/e3zj/0ovzc/kPfVJRIWIUcySAB4k8q2Jsboq2dnBbjqiDiPix5sfxE0HbqN7cbKRajbNDJgN1jkxzRscj6u4jwqSUoKd3W7WTWs50m/wDRkjPDC5PI+C57wRzU+yriqv8AevsINQh7WIcN1EMxsOXGBz4CfiD3H11WGz++a/tV7K4iWfg9H0yUkGOWGbByR5jNBo+lU9ab+7U47S1mXxKsjD44ru2e+XSZMZlkj+/G35rmgsSlRuy260yX6F5ASe4uFPuODXbt7yKTnHIj/dYH8jQemlKUGXN9OzvzTUHZRiO4/ap4ZJ9Mfi5+0VX9an3vbInULM9mMzwnjjH2uXpL7R08wKy7IhUkEEEHBB5EEdxFB8qlO7bZ431/DCRlAeOX7i8z7+S+2otWk9x2x7Wlu1xMpWW4AwpGCsY5gEdxJ5+6gs5VwMDpX9UpQKV8Li5jQZd1UeLED864t7ttpsX07y3B8O0Un3DJoJDSq/vd8Okx8hM8n3I3PxIArg3e/q0H7u2mfzYoo/M0FvVVO9/btogLC0Ja5lwrlOZQNyCj+Ns+wVDde35XcqFLeFLfPLj4jIw9XIAH2GpVuc2EZP8A4jdgtPLlog/MqG+uc/XbPsHroJFuq2FXTYOKQA3MoBkb7I6hB5DvPefZU8pSgqjf/s329ot0g9O3PpeJjY4PubB9WaznW2dSskmieFxlJFKsPIjFY11rT2t55YX+lG7IfPBxn29aDwUpSgl+6nSfnOp2yEZVX7RvUg4vzAHtrWlZ9+ThYcVzcTEfu41UH77ZPwWtBUClKUCs+79ra3tr6CeIL27gvKhUMjcJAUsp6luYPiBWgqyZvW1g3Op3D5yqN2SepPR/xcR9tBdexNto+qW4mFlbCReUsfZqCjY8h9E9Qa7E+7LSG62cY+6WH5Gs3bFbUzadcLPEcjpJHnlIveD594Pca1bs9rkN5Ak8DBkce1T3qR3EUESm3OaQ3+5dfVK/9680O5qxjcPDNdQuOYZJQCPbw1ZVKDz2sRVFVmLkAAu2Mt5nAAz6q9FKUHmvUdkYRtwuQeFsZwe7I8M1V1vo9lq0si3unTW9zHntZlDJGxHLPacg2e7Iziraqqt+es3dvCoj/wBnmR4pCOTK5wyni69ARjv5+VB8L7Z3TNJ4JoLCa7lf90wzInF3elzVfXj1VZmiibsUM5HasOJwOik8+EeQ6eyqi3BazdynsB/stujcRPMl3fKgHuAAPIfrV20Cv4cZBAOPPwr+6UFc6hujtLiQyXE91M5OSXkHwAUADyFf3DuZ0hesUjeuV/0Iqw6UENt91+kL/wDSIfvFz+ZrybS6PounW73Elnb4Xkq9mpZ27lGe8/DrUx1PUY4InmlYJGgyzHuH9/Kss7x9tZNSuC3NYUyIo/AfaP8AEfh0oJDuu0+DU9UeWdY0CDtUt0UKhwwAGB9VeRPifbWkAKyNu01g2uo28ucKXCP91/QPuyD7K11QKUpQKzNv60nsdSMgGFuI1f8AmHoN/hB9taZqmflI2AMFtNjmsjIT5MvF+a0FBUpSg0F8m63xa3Mn2pgv4Ywf89XDVY/J7TGmE+M7n+lR+lWdQKUpQeXUrkRRSSHoiM3uUn9KxXPKXZmbqxJPrJya15vBmKabeMOogk+KEfrWPqBXT0jXbm1JaCaSInrwMQD6x0NcylBK/wDWRq3/ADs3vH9qf6yNW/52b3j+1c6TZe9WHtzbSiHhD9rwnh4T0OfDnXFoJX/rI1b/AJ2b3j+1W/uP20ur3t4blu0MQVllIAOCSOE4GD05H11Qek6dJcSxwxLxPIwVR5n9B1J8K1ZsDsfFptuI09KRsGWT7bY7vBR3CglNcLbTQVvrSW3bq6+ifsuOan313a/CaCI7stlv9H2SRMB2renKeX0j3Z7+EYHsqX1+A1+0Fcb6drbiwto/m54Xlcr2mAeAAZ5Z5ZP6Gqd0fbLW7mUQw3kjSNnhUui8RHcC2BnyrRm12zUOoW7QTDkeauOqMOjD+3fWU9oNGm0+6aGTKyRMCrLkZ71ZT7jQSPWNrNoLVuGee5iP8YAB9Rxg+yub/rI1b/nZveP7VemzG2Flf6dCb54OJz2UiSlfSccuSn7QwfLNVbvh2DisHSW3WTsZM5BGUQ+AfOefgffQQnWdpLu6x84uJZQOgZjj8PSuRSlB/aOQQR1ByK2joV32tvDL9uNG96g1iute7tJOLS7M/wDoIPcMfpQSalKUCq638W/FpUjfYkjb+rg/zVYtQzfAmdJuvuqfdIpoMoUr8pQaW+T4+dMI8J5B8FP61ZtVB8m+fNpcJ9mYN+KMD/Kat+gUpSgjm8SMtpl4B1+byfBCf0rH9bX1a1EsMsZ+vGy+9SP1rFkqFSVIwQcEeBHKg+dKsLYzdRe38Qn4khib6DPkl/MKPq+Z61x9tNhrrTXUTANG/wBCVclWPh5N5Gg7t1tpqbaYLU2uLYQqnbdlJ9AAANx/R54HOq5NaT1g/wDywv8A9nD/AIVqn9kN3892nziUiCzXJkncj6K/SKr1PTGelBIdxlzYW8ktzdTxRuAEiVzg8+bMPgPfV/6lq0FvF200qxx8vTY4HPp76rDRd3ulWM8cUzm4luWPzcMMcCovHnkeuRji8wMda++/+zupbWIRRloY2MkzBgMYXC8ickc26UErl3j6SoJ+exHHcCSfYAKoPeDvEub+ZuB3jt1JEcakrkfabHVj1welQSlBLNjturuwlV0kd48jjhZiVYd+Aeh8CK0Paby9KkRX+dxrkZ4XJVh5EYrJlKDaGja3bXSl7eZJVU8JKHODjOD7CKpnfxd2FyiSw3EbXELmN4wfSK5OeXirD4mvX8naxuk7d2jItpVUq5I5upI5LnPQnnjuFdra3YfTL+6e2RuwvBid3UZ41dvSyCeZHwyO40GcK0nuk1RdT0x7a5Hadl+yfi58SEZQ+sDln+Gqr2u3ay26PcWri5tFzmVSOJeElX4lH2WBGRVmfJ90OWC1mmkUqJ3XgDAglUBHFg9xLH3UFMbebMPp13JA2Sv0on+0h6H1jofMVG61Hve2KOo23FEP28OWj/jH1k9uMjzHnWYpomRirAqynBUjBBHcRQfGtebso+HS7Mf+gh94z+tZFRSTgdTWz9nLPsbWCL/hxIvuQCg6VKUoFQ3e8+NJu/uKPfIoqZVXm/e44NJlH25I1/rDf5aDL9K/aUFyfJvv8T3MJP041cD7rEH/ABCr9zWUt0GrfN9Ut2JwshMTfzjA/q4atv5QV5LHYw9mzKGnAYqSDyRiOY8xQWg7AAk8gOZNUrtFv14JmS1gSSNTjtHYjjweqgdB4E119L1Vo9mWmaZncwSDjduI8TOyhcnnyyBUT3B7P29x86lniR1RVQcYBADAlvbgDnQWtsBttDqcJdAUkTAkiJyVz0IPepwcHyNZy3maQbbUrmPGFLl081f0x+ZHsqYbhJCNUmWPPZGKT3CQcNdz5RWzxKw3qD6P7KU+ROUJ9uR7RQdva2wur/S7T/RkmFAQsqvwEgJjGf4W6iu1LqkOnafbJqsqPJwhWyvaFmHPkMEnAwC2PzrOWg7X31mCtvcPGpOSowy58eFgRmvHrWt3F1J2lxK8r4xlj0HgB0A9VBrS51izWxFy2PmvZq/0MjgIGPQx5jlioBHeQ6slzHbSoqSW7QLFkJ2TJKzo/By9CUEZIHLhxX5qusW52cWITxGT5pEOz414shVyOHOc+VZ9RyDkEgjoR3UGmptleLU7CZ0kEcNrwoM5CSIfos3f6LE+fCa6ugbQxXjy2tzDi4hd8xvGSpUOQrhiOHmuO+s32W2+pQhhHdzDi5HLlugxyznHsrpXm8/VJYTA1x6JHCzqqq7DpguBn2jnQXJc7e7PxuyMIsoxU4t8jIODgheY86+X+sXZ3wj/AOmP/bWa6UGlP9YuzvhH/wBMf+2g3ibO+Ef/AE5/7azXSg1jtLtFb2EQ+bxBppwOxjiiOJCeQJZRjAznrmvHPs4f9NRXaq3O2f5wc+jnAjRR5nmcfw5qitF3kalaxCGKb0FGF4lVyn3SRkeqvJebd6lKoV7yYgHIw2OfrGCfbQXIeDSIbftZURIjcO0XHxGRpmwkPDzLBQeJm6ZXzqz9MvYp41khdXjYZVlOQaxZNKzsWZizHmWJJJ9ZNX38nC5c21zGclEkUr5FlPEB7gfbQXETWdd8u0OlzyMtvFx3KnDXKHhXl1GB+8Pdn4mphv32zNvCLOFsSzDMhB5rH0x5FjkeoHxrO9BJN3+kG61C3hxyMgZvur6bfAY9taZ252vh02DtZfSZjiOMdXOPgB3mqx+Trs8cy3rjkB2UX5ufyHvrk7+J+LVYY5iwhWOPp3KznjI8+XwoLl2F2pj1K1WdVKNkrInXhYAEgHHMcwQa7Zv4ePs+1j4/scS8XuzmqS243l29vbrZaSQq8OGlUEBBjopI5se9v16QG/2I1GK2F/IhVCQ2S37QZPJivUZOPOg1rVO/KPv+G2toc83lLkeSrj82qT7nNelvNOR5SWeN2jLnqwXBBPnggeyqn+UBq3bagIQeVvGFP3m9M/Ar7qCr6UpQfa3mZGV1OGUhgfAg5HxrVN/Yxa3pSDPD20aurdeCQePqYEH21lCr6+TvtGGjlsnPND2kXmp5MB6mwf5qCBXW7rW0PzbsZWj4sgK+YiftdQB6yAavPdfsf/o207NyGlduOUjpnGAo8QBy9eamdeW/vo4I2lldY0UZZmIAHtoIJt7r1tooE8NkhmnyvGqhF5YOHYc/MDvwfCu1Y3NvrOm5+pOhVx1Mb949atzHsqpt6m9KG9ja0t4g8ZIzM45kg8ii93rPurwbmdq3sLs2s+UinIBDDHZyY9FiD0BGAf5aCA6/pMlpPJBKMPGxB8/AjyI51za0lvo2EN5D86gX/wAxEvpKBzlQc8feXqPaKzcRQWfebubRNLF8LpjKYUk7LMeMsASPHlmqvpSgUpSgUpSgUpSgUpXR0XR5rqZIIELu55AdAO8k9wHeaBa6NcSIskcMjoz8Csqkgty9HI7+YrQmz4h2f0sNcEds+XaMH0nkI5IPHAABPQczXVsdU03RbSO3luIwY15qDxO7dWbgGTzJqmt528KLUWCx26Kq8hM4BlIz3H6g8uZoIbtBrEt3PJcSnLyNk+AHcB5Acq+ejaZJczRwRjLyMFUevv8AUBkn1V4K0VuT2DNrF88nXE0q/s1I5xoe/wAmb4DHnQSx3t9F00fYgTGB1kc/qzmo4mkW20dhDcSDsZ14l44+fCQ2CpB6qeRwfGpFtJ821SwuYIJY5TwsPRIPDIvNcju9ICq0+T1rwje4tJWCgjtU4jjBHoOOf8vLyNBKtk9zNpayCaZ2uHU5RWUKgPcSvPiPr5eVcDfpqF9LNFYRQt2UuGUrzMzeHkF649vSrYudpLKP6d1AvrlQfrX5pW0NndMy288UrIMngYNwg8s8qDlbD6IumacschGUVpJm7uIjib2AcvZWWtotTa6uZp26yyM3qBPIewYFaD38bRi3sewU/tLk8PmEHNz7eS+2s1UClKUCuzsprr2V1FcR9UbJH2lPJl9ozXGpQbMOqmW0NxagSlouOJScBzw5AJ7ufKs6tHrGv3BBDFVbmCCkMPcR94e1qlG4TbXgb/R8zeixLQE9zdSnt5keefGrzjhVRhVABJOAAOZ5k+uggew26u0sMSOBPP17Rx6KH+BO71nJ9VNttkdJkuUvL6RY8LgozhFlweRbvOOnLqMZqQ7dbRrYWctwRllGEX7Tnko9XefIVnzZ3Zm/12eSZ5eQPpyvkhSeYVV9XcMYoND6TtVYTsI4LmF27kVxn2Dqaqve9uuJL3tkmScmaAD3ug/NfaKj21u5+6sojcRSiZY/SYKCroB9Yc+eOvLnU93I7byXkb207cU0IBVz1dM45+JU4594IoM40rR28fdJHdlp7ThinPNk6JIf8refQ9/jVA6vpM9tIYp4mjcdVYY9x6EeYoOfSlKBSlKBSlKBXptr2SPPZyOnFybhYrkeBx1FealB+k1+V7tL0ua4kEUEbSO3RVGf/wCDzNX3u53Qx2xW4vOGSYYKxdUjPn9pvgPPrQcLdDuvLFLy8TCjDQwsPpd4dx4eAq29fngkjktjdJDJIhQESIHXIxyUnOarnepvTEPFaWLcUx9F5V5iPu4U8X8+711AZt1t/wDMpL+VgrKpkMTkmQqOZYnuOOeDzoPnrWzOp6HMJoywQH0Z488DDwde7Pg3LwqP6faC/um45obdpWLZfiVOJjkgEA45nvq6tw+tPd2k9vP+0WIqFL+llHB9E564Kn314NvdyyvxTafhW6m3Y+ie/wBBj9H7p5eqg49vuEuTza7hAPeqs39qtHYDY2LSrdlLhnYlpZscOQOg68gB+tRbcbZ6nGky3RkWFDwRxyg8QYH0uEnmFA5eB7ulfLfvtqIYfmMLftZh+1I+pH9n1t+WfGgqfeVtQdQvZJQf2S+hEP4FPX+Y5PtHhUSpSgUpSgUpSg+0ErIwZSQykEEdQQcgj21qDdVt0upW/C5AuYgBIv2h0DjyPf4H2VlmuloeszWk6TwNwyIcg9xHeCO8HvFBf3yiLd205GX6KTqX9RVlH9RFfvyfL+JtPaJSO0jlYuvfhsFT6scvZXb2a2htNcsnjYAMy8M8OeaE96nwzzDfrVQa3u71XS5zLaGWRBnhlgJ48eDoOefLmDQaB2jv4oLaaWYgRrG3Fnv9EjGO8npiqD+T7Azak7qPRSF+Ly4mUAf/AL4Vzm0naDVGWOZbh1B/3wMaL5kEAe3BNT3U7SPZ3SnVGDXdz6HaDxxzI/hRSceZHjQf1rO+tbe/kiEIktkPBxqcPxD6RGeRGeWOXTrUyhudK1uDH7OcY5q3oyR/5lPmOVU3ub2Wsr55vnbqx4eGOHj4XJPMuO846D1mvBtxob6Hfxm2nJ5CRCfpL6WOF8dQce0UEu2o3FNktZTAj/hS8j7HA5+0e2qy1rYzULUnt7aVR9oLxL+JcitI7Vbcx2NtbzumTO0YCZxgMAzHp9UfpUtRgwBHMEZHmDQYiIr8rZepbPWMoJmt7dgOpeNOXtIrkS7tdIbn8zi/l4h+RoMl0rWsW7PSV6WcZ9fEfzNe3S9H0yKRooILZZUALoiJxKD0JGM88UGW9F2Qv7ogQ20rD7XDwr+JsD41ZuzG4mQkPezBR/wouZPrc8h7Aatfava2005Ea4ZlDkhQqlicDJ5DpXk1nbKKPTG1CMHhMfFGGGCSx4VyPvEUHklvdH0OMR5jhJH0VBeV/M4yx9Z5V5rDe/pMzcBlaPPLMiFV9p5ge2qd2F2Pn1u4lmnlYIDmWU82Zm5hVzy6ewDHKpztJuLhETNaSydqoyEkwVfHdkAYJoIzvQ2EaycX9keK3Zg4Kni7Fs5BB70J6Hu6eFfHVt4GpatFFYxR+m64l7PrMRz8gq4GSM/CupuO2hbtZNMuBxwyq/Cj8wrAekmD3EZ5eI865W8LYyfR7lbq1ZhDx5jcZzE32G8j3HvHI+YeHZnavUNDZ4mtwqu3E6SoykkDHJ/DHhkVd27zb5dUD8NvLEYwOJjho8nuD9578Y6U2F12LWLLjngUkHgkV0BRjjmVyOYPw6V7tX1Kx0e04uFYo1yI4kABdjzwo7ye8++gbfbXxabbNK2GkbIij+02P8I6k1lDUtQknleaVi0kjFmY95P6d2K6e2G08+oTtPMfJEH0Y17gP1Pea4FApSlApSlApSlApSlB09C1qa0mWaByki9/cR3gjvU+FaX3ebxrfUlCHEVwB6URP0v4kPePLqKyrX3trh42DoxVlOVZSQQfEEUG2yazJt1qcms6ssEOSgbsoh4AH03I9hPqAqV7A76vow6h5AXAH+NR/iHuq09O0iweUXsMcJkdSBNHj0gfMcieXXrQZ33r7Nwabdxx2xdR2SuSWJPFkjIPUdM1K9ntzV3NMs1/MpTIZgHaR5B4Fj0Hnz5V+b/tnrqS5S5SJngESoXUcXCwZicgcwOY59Kt7aDWls7GS4b/AHcWQPFuEBR7WIFBQW/LXRPf9ih/Z2y9mAOnF1b9F/lq7d1msfOdMt5Ccsqdm/rQ8PxAB9tUNsNso+ox6hcOCzRxMyH7UrEv78KfxCvDoe29xbWM1lFkds+eMHmqleFlXwLYHP10Ey30bxO3ZrK2f9ipxNID+8YfVB+yD18T5DnYu3+nzvpH/l5JI5Io0cdmzKWCp6S5Bz0yceVZ11vZ+a1eGOUYkljWTg70DsQAfPAz5ZrYMCDgUHpwgY9lBVW4Palp4JraaRmkhPGrOxJKN15nnyb8xVbR7eyRaxLfKSUaUqy55NFnhx6+EAjzptDHNompzrEPRdHEfcDHKpx+E/Fa6e73d6L/AEy6lxibjAgY+KLxEepiwX2UHS+UJqyT/MTEwaNo3lUjvDFQD/Samm2uhudnRAgy0UELY8QnCzfAGqAg7aWaC2kLfs5BEqN9Til5r+InlWxhGOELjIxjHljFBR/yeto4YxNaSMqO7iSMsQOP0QpUHxGAceZq4td1qG0iead1RFGeZ5nyA7yfAVT+225SQytLp7KFY57Fzw8B6+g3h4A9PGo3abo9YnYLNhFH1pJeLA8gCTQfxukge61oTqpCq0szeChs4GfW4FaQv7GOeNopUDxuMMrcwRUc2H2Pt9KgZVbLN6UsrYGcfko54FQ3b3fPDEGhsOGWToZj+7X7v2z8PXQS7anamx0e3VMKCFxDbpgE48u5fFj8TWa9rdqbjUJjNO3kiD6Ma+Cj8z1Nc3UtRlnkaWV2kdjlmY5J/wDbyrx0ClKUClKUClKUClKUClKUClKUCpDsxtheWDcVvKVGecZ9JG9an8xg1HqUGiNlt99rLhLtDA/TjXLxn/MvuI86mO0GlWmsWvZC44oywYNC6nmOmevLn0NZGr16fqM0DccUjxt9pGKn4UGtNiNkYtNtzbxsXDMzM7AAsTy548AAKgmxG6bsb6W4uFUxxyMbeMEEHnlWYfwg8ge8ZqA6Lvm1SHAd0nUd0i8/xLg+/NTPTt/sRH7e0dT4xuGHubFBHN8UEja0hKNwfsFDcJ4TzHQ9OprRSDAHqquIN8+kvjjMqeTxE/lmuvFvR0hh/taD1q4/y0EY+UBs121sl2g9O3OHx3xsf8rYPqJqabuNH+a6dbREYbswz/ef0j8TXjl3m6PjndxkeHC5/wAtcy53z6SnSSV/uxN+bYoOftTu6Z9Xtb2FQY2lV7gZA4WT0g+O8NgA47/XVq1TWo7+7cZ7G1lc9xdlQfDJqHazvs1KXIiEUCn7C8TfibP5UGjru7jjUvI6oo6sxCge01XG1G+ixgytuDcyDvX0Ywfvnr/KDWfNW1q5uW4p5pJT/GxIHqHQeyudQSza3b6+1AkSy8MfdCnooPWOre3NROlKBSlKBSlKBSlKBSlKBSlKBSlKBSlKBSlKBSlKBSlKD9r8pSgV+0pQflKUoFKUoFKUoFKUoFKUoFKUoFKUoP/Z;" vertex="1" parent="1">
          <mxGeometry x="290" y="570" width="120" height="120" as="geometry" />
        </mxCell>
        <mxCell id="Ry9hIVVeoLZASk-tj-2A-42" value="&lt;font style=&quot;font-size: 16px;&quot;&gt;&lt;b&gt;Server64.exe&lt;/b&gt;&lt;/font&gt;" style="rounded=0;whiteSpace=wrap;html=1;" vertex="1" parent="1">
          <mxGeometry x="1310" y="427" width="115" height="46" as="geometry" />
        </mxCell>
        <mxCell id="Ry9hIVVeoLZASk-tj-2A-53" value="" style="shape=image;verticalLabelPosition=bottom;verticalAlign=top;imageAspect=0;aspect=fixed;image=data:image/svg+xml,PHN2ZyB4bWxucz0iaHR0cDovL3d3dy53My5vcmcvMjAwMC9zdmciIHZlcnNpb249IjEiIHZpZXdCb3g9IjAgMCA0OCA0OCIgZW5hYmxlLWJhY2tncm91bmQ9Im5ldyAwIDAgNDggNDgiPiYjeGE7ICAgIDxnIGZpbGw9IiM2MDdEOEIiPiYjeGE7ICAgICAgICA8cmVjdCB4PSI2IiB5PSIyMiIgd2lkdGg9IjM2IiBoZWlnaHQ9IjQiLz4mI3hhOyAgICAgICAgPHJlY3QgeD0iNiIgeT0iMTAiIHdpZHRoPSIzNiIgaGVpZ2h0PSI0Ii8+JiN4YTsgICAgICAgIDxyZWN0IHg9IjYiIHk9IjM0IiB3aWR0aD0iMzYiIGhlaWdodD0iNCIvPiYjeGE7ICAgIDwvZz4mI3hhOzwvc3ZnPg==" vertex="1" parent="1">
          <mxGeometry x="1327.5" y="470" width="80" height="80" as="geometry" />
        </mxCell>
        <mxCell id="Ry9hIVVeoLZASk-tj-2A-54" value="" style="shape=image;verticalLabelPosition=bottom;verticalAlign=top;imageAspect=0;aspect=fixed;image=data:image/svg+xml,PHN2ZyB4bWxucz0iaHR0cDovL3d3dy53My5vcmcvMjAwMC9zdmciIHZlcnNpb249IjEiIHZpZXdCb3g9IjAgMCA0OCA0OCIgZW5hYmxlLWJhY2tncm91bmQ9Im5ldyAwIDAgNDggNDgiPiYjeGE7ICAgIDxnIGZpbGw9IiM2MDdEOEIiPiYjeGE7ICAgICAgICA8cmVjdCB4PSI2IiB5PSIyMiIgd2lkdGg9IjM2IiBoZWlnaHQ9IjQiLz4mI3hhOyAgICAgICAgPHJlY3QgeD0iNiIgeT0iMTAiIHdpZHRoPSIzNiIgaGVpZ2h0PSI0Ii8+JiN4YTsgICAgICAgIDxyZWN0IHg9IjYiIHk9IjM0IiB3aWR0aD0iMzYiIGhlaWdodD0iNCIvPiYjeGE7ICAgIDwvZz4mI3hhOzwvc3ZnPg==" vertex="1" parent="1">
          <mxGeometry x="1327.5" y="540" width="80" height="80" as="geometry" />
        </mxCell>
        <mxCell id="Ry9hIVVeoLZASk-tj-2A-64" value="" style="shape=image;verticalLabelPosition=bottom;labelBackgroundColor=default;verticalAlign=top;aspect=fixed;imageAspect=0;image=data:image/png,iVBORw0KGgoAAAANSUhEUgAAAUAAAAFACAMAAAD6TlWYAAAClFBMVEWb7qia7aeb7aiU46GHy5KJz5SHzJKIzZOY6aWR3Z2T359pl3A5RDt/vYia7KeS356T4Z+U4aCX56SZ66aW5aJ4soI8ST47Rz1+u4iM05c8Sj9DVkdGWkluoXaFx485RTtehWR4sYE7SD58uIVBUkRafV9ScFdHXUtHXEpIXUtEV0c/T0JJX01IXkxDVUZdg2NzqXxrm3NRblZIX0xafmCU4qCZ6qVKYU06RTxBU0Rhimhbf2FjjWpNZ1JpmHGP2ps9S0CJzpNWd1t3r4BsnHNsnXSW5qOEx4+O2JqO15lUclg6RjxAUEOFyZByp3uBwYuP2ZuV46FcgWJhiWdlkGxVdVtYel5+vIiCwox/volXeFxCVEWDxY17toSX56NolW9PaVNXd1xWdltVdFpZe16N1ZiN1plwpHk/TkF0qnx5s4KHy5FXeV09Sz96tYNfhWWM1JdJYE1ii2h0q31VdVqAv4o+TUF/vYlFWEhgh2ZLY091rH52rX96tIOFyJB1q311rX5olnBBUURgiGdehGSK0ZaGyZBwo3hvondxpXluoHaV5KJqmXFAT0JnlG5Sb1dafWCExo5eg2RZfF+K0ZVYeV2L05aL0paDxI1FWUlmkW2K0JVnk25AUUNfh2Zmkm1MZVCCw4x2r39qmXJ2rn8+TEBNZlGP2Zp9u4dCU0VtnnVlkWyS3p5kj2uCw42Y6KRun3aQ25yT4J97t4VUc1lNZ1FQbFVxpnpvoXdPa1ROaVNyp3pcgGFtn3VKYk5GW0pFWUhkjmpQa1Rmk22ExY5ii2lTcVhQbVVLZFBjjGlKYU5RbVZSb1aAwIt9uoeGypF6tYR8uYZ3sIBfhmV9uYaM1ZiR3JxzqHtrmnJdgmNPalNOaFJagv2CAAAOUElEQVR4AezBgQAAAACAoP2pF6kCAAAAAAAAAAAAAAAAAAAAAAAAAAAAAAAAAAAAAAAAAAAAmL27cIjjzP84/pmhBEjf2cjQneg9hTjt5aA6LcRDL2SbcilJLXLXeGjcpak3nkr0LO5ude/vrn7ud/1nfixQgizsLrvo7Cue8c/zfWaefZBNjKV6bEWRUjentFvSu9TIyLBaMEE7liW2OojMrK5hupU6uilhge5dG+rRs3svNc7pWqV7docpwNsIVnKpq7fsBIuqD30rBG8K/6tffwaocT8y1SdzuzqInFwiCw5UzBwpY9DgqhgtacjQoUOHDRueR2R33DmsMT8eQbXgTzrI3S+fyAwFil3OXXfj3nOvpIDuu59qhmbzeKADPHYfLCwqGEkjbk+LowBHgQejVSGjP4lzGTNWCXDiTyN+PR4EGDd+woTiih8TiouLq/8SVjDqoZjPIqCf9gcDE1WhZBLRhYji4cmyE3mglzwyPj92j5TGH6Kln4GB/CS04i19cSH44JTKNPVoWS0PhpXVNXUajQoWlVV47PGYD1/6xJOPd+v2eF3pTxGX6TO6zcyMM8FZAwDDzxO/k2aAi6FfVRsGFF32L8ZVeHrctNl1zZlbWBBr881LD5vfjcgMcTAAC+IafNoaiAcsnKnI7Jjz6wIehtDtipWVhLtRVh7JZVikXopDOWHljZ7wrJ5Tpjyk6J4BA7BYrWl+LslmljA1jhpcSqWcRitrGdOnz41egBmEGWarVS2nJYxZsTLGCJ3qAFepMWUAq6PupgthLtPUuvoQs7vT1zSqtHQtNVwPQoUx3kTWrQc81kRc25I2gAcbo+V3SxADLrMlS60p+7alC6kyIGdTZM9uXrp58+Znn1NT1jz/wgubNr8Ii17CxcDLsT0Hp+IBP7+3keHLK+C5PPxqlPy2rCUEHrMdBVr9VdTM4q0Vtm1XNAFFV7xDW8bgApR1VVSOdoCBKQpEWLZz10owLru7NFlWlp5ZiwswLSCnDScw7STta8YYQgDPxRD58ruA3MLukZrLKQQIcUdGlFgyluBiYJrkqONzNCOEB7wWw/3odVwYFGFFS3oDwLAkXU608XMIA09LgSTPrNptlOCbACGKop2BrT0Aax9SBHupsi9KWd0CHgb2N/96bTn7DjR00GmjBG39EsCjSNHcA/CrWWpoNYawg1EuogtVnlIiSomkt9pKKVV+HaUTPwZwvx2pDQYDBn6jplg6uATAY7US0ZvIctRWysFg4LdN1Y+tIZgQhxTBYcCDaOOXZ0zN+NlW8y0lEsOAtptjzgEPD440dWW77gCOLo+QzBHwXIKvRsnl2Prq/GxZSsDxyHMnR2ap7RLcDCE8+HUTz+LpGNgbYXlmEOOyMF1NcrQdDzym3SdHiSjZXsyJk/kD91Pj1Pj8RwIKtGGCS8HFg1E7G11lKLicVkOZLi6HMhRoOr8+GzEG5lgJ5udIquyto48MqFZwmyoE1HYsle+m0plGSvC+sw8A515QQ855w8Ndoo3RfjaC3HB+kpOEBpdddzdW0ksqTo4uYAC2NnIyF8F4TJUT6WCXDm1RVumxy5ftRg+d9TCugXFJv9bk55a1/IpsxW17CAMeVyPn39MFmND4i8JygPLGGq/rGEIGngovb8eszPsc/YKTzQp/AGGGbYrkWi5wtYnLL29qLHY9SNjsdl57usG5c9NdWCRL8SvGI2y7AqrvQJ4BzqtxJ/EAyhtubOn6EiDEW2pPHNXx2OnTb7+TR5iBgma1QQEGDLzbMIRbAJcLasJ7gIGlcuqfaNZawGVOO+u/J99/rMbe1VTywAAfZCl+ljQBDCH4UHa9DK4DHE5rcusFQIjcVfXzKzmHAT7KlKX2ZDb1uYQdeX7XcgWal+DHQSCEyalXLGcGA6yT09TWmVXxP13v4OmfEAKPcjlqV577lB94VPlsx5Ejn0fo37EnGMSAwbxwRbVtxuCxSU3KLgAPPn2ibgEW4IFh0kS1L/dp7P/dU1gYIszbU1h4T+FdNxIdVDonwCMsU3atYEsB3tkX7Sb6u1Pgwu9rb3p9CAbYOEuO2hdHYV+M+/L9rz5ZqSpOwg/zqWAAZtbuxHYBwPzou/8FBg90U+aduAY2SgG1Z1bS9nMJDMBm3bSdsMuKajBhD0xUjaGEgK8lW37xDVVm1g9wsmJNkJoEf0zYRvlKGSHCBipQO8CfKgaFVPJKZEma8pUHIb6Vn9jVCRoYKKdWgFmyFd13uACfTa5+qOPytdPR+68T14fbA1IZBkJ44RqsCbBE0VnKfgoD1S9IXjfkcvohWR39a4nWrLw09cKFX/86jgQxuHg3JNmONscaoBwtolKONPEtMLzeQ04LFIPdepW3bWvOMKqUXZdiS/CLIODCyRcklUzDwHLFpM8fAGaXSH/Ew/C4nKSOMfoUb92+daukQCtMz5SUz1y3FcCjysmYT3gQQAjYJhVhyH2qa4yN1nVxWdng+6TrhwGOpicjvC1n/zTzRqUtbxG2/U9ZLZydMv785+6LAUzNb/TfohgFNvQFQ9gOvQeMkKxYyzfM0l8ABnWVk+DVZL755+WfcZNHpXK1mJ1ZWVnZvyfM8IO+eSP69bsmS7HaMChImEfv88C5++KunPTd0w/tlKUE3UZEf1WL2UPIdUPUVSbHcWzFLqAvMIQNWn8KvnUUL7vyiIm6QWQDW6r7ThoWrF/uZ++dWJKWwIh60XE+6WWrbRynDpcqf1PLmN8fMNQYMnHGjDetZj33LWklYb9W5h8PqK1YO6jj0dEzKpS21OA8+2N+kL80J+fZAwkMmgLKfmEBHGnTr2S25OTcVssj15I7fRJhYr344/Mff/zeI5sSn+AKSMr/WAq0q3kmRy3JjvD3RHcXUEpKSkpKSkpKSkpKSkpKSkq7YHeOb99oqW3mXBzpllOf3F/jpdGSo46iTmBzVw/JltPq+f1l5ApqO/r1jI6ToKMreza8/PLLGw5v+GIucH/XVj/3bucgxE0ePDy54yQ4bxK1GM7NUCv7AJcG1qmjKMBQwwDlamV/zSNs7+FXfrDn73N2qaP4kNpG3p3e2p3HUbeRrw+ZVNjgvzuIf/QbOnz4Cvel+4cPHz40L7sNHsNOhx682Kr01QtKRMqUTCUgxW5vHSglJSUlJcVOcHiXcn3eLKXIdpxmbjWOBfK9gJ5x3467K1oaHcwb4UK+LPncmhGw4mLcWxFmOLVV/naf/gZ35FyJ/3uD3bgxeQUw2O8lePlOWBt3Fw4o7G08Bv3N149iR2UwYpOa58mFBCHH1wmeeR2OqnkCGngHITgp33ZjW++AW9T8+v0YDLzg4xqcBnsSqJ9VAIYX5FdPAfcoAe9Sabx86itCTFIiFmCAUI78KPDgGJjbK7H5hK1gIF+O/MaSDpHLBgWif1jNaWIn73rA7j/6MMHsgr5w12+azljq9sUXZ5tcBYxL8AlZ8pkSMJTLaar0tm0v7w+z1YQrV8FzcUvlL7bSmvzW6pYubl6zjbARM5vcj15cAiHWymcCN4Dpa9SoRwEDn925Tk5VUpIdMcLZAJ/+05KvHAP4oyxF1FNPY4BB/FkKKGzKxe7ZiqgIMJDtrx78HECjnfMoHkCw+82EHyP4uWxF8hEGFmbKTx4HWKoIApr17VAPXBjWXTfNBv7eSDcuA8ygbFnyCUelGHhVdoRFXUcAuTBy4j7VkjkJcucUKtI3kS7CBY4elG9cHgrwo0hz1P9aDxjm3hhbp9osZb4D8KUVYWCdNRcwpMvxSwHuwMW7NS3CktH9cYE52fVzctTjK4DCbw5IsuouKscDHpsonxg9DQOSpboCutafICwrc+Q0DHfKhkKAL/+6/Vi9m+E/38HgsV0+sQeP4GNpauB6HkG4XVIg8ouT1VTKe7N33TK0TwMski/YKgKGRnig7jyHC4clu7EtNW3jGPCAs8t7KazPwd+kp2d0fwbgefnEMuBXauCh3RhYJltNKaMvlcbr3ntnzd8dpJLxQr4JsAgM0xtU16yXwPCoosjUBDBAXt6SU6fGGEMld/odHPfRVP77qiugtEF48EX0t4/UztF/Awz1PHktW/4wDjh0XnX95mvg6ps9ZSkKS3K6lYJXL8WS8CJfuAvjgupaioEuUiDGL/584gEq/fv4pvx/bHk8/9mcbPnFlhXA+LrdUkuBouuK3eM/H3XiP7duU4W0gpKqXP3B0Zv3zM1X+QubKj3/gmRJB/f8/ZIUiP9raW1lHWX9m/IRRxX+SY0Pr0gBNb+G9uOyVn4zkRpjMpSQrUEY/i9L/nKtvwfkrj21ZG1P2UqArQlAbrZ8xhkBTFVaWpqtBB3BY6Fky0+yjrowVcnxW/A+LZGPBCRwKZalxFl6FxdmKSC/cGRNA+65puTI+gnw1nz5x8VCTIhSOUlqj9+Ax2Q5vunAA/Hg7XQlS28MlF2XP1hSEUASv4/Mq2+Dy7uy5A+v4MLw5Ulskq4AJ+QThzGw9l4l0UHA8KJ84QjA+nuVVPPWAh/7oQ9bKoQQrpIrcy2wdpEfvk66eAku7lglVxp4hkd98AAuhhDD/6wkc2bkAd+okqNO66Gt4Hn8RIFkN8yWPODtF65evfpar06boKXuYEIMelxJdmU8GFwq/XeKOqtAORh4POklks5NLhPUWZUStk4BJdk+avu3OqsnAHor+ZavDXFTjjqrdRjDDbWA5bv5wR+ze6mzcnJgUUCOkt+J0ydP3rJly+TJk//cOb9hnKUqffapwr5bW/IabXU6tnSyaOrUS5eOvLftd5emnvgf45USD6d8DHWsVUo8phBmqPljulLiMWvwB9/f1Y9q07/7/mWlxK1899FKhzapOVLsQDVbfvf/7cGBAAAAAIAgf+tBrgAAAAAAAAAAAAAAAAAAAAAAAAAAuAg4XSF/C4Au2wAAAABJRU5ErkJggg==;" vertex="1" parent="1">
          <mxGeometry x="450" y="357" width="130" height="130" as="geometry" />
        </mxCell>
      </root>
    </mxGraphModel>
  </diagram>
</mxfile>
